<svg width="20" height="20" viewBox="0 0 20 20" fill="none" xmlns="http://www.w3.org/2000/svg">
<path d="M6.97205 14.2134L12.7119 8.71752C13.0604 8.38384 13.2347 8.217 13.3257 8.03594C13.4888 7.71164 13.4888 7.33388 13.3257 7.00958C13.2347 6.82852 13.0604 6.66168 12.7119 6.328C12.3634 5.99431 12.1892 5.82747 12.0001 5.74027C11.6614 5.5841 11.2669 5.5841 10.9282 5.74027C10.7391 5.82747 10.5648 5.99431 10.2163 6.32799L4.51805 11.7841C3.66347 12.6023 3.23618 13.0115 3.08698 13.4872C2.97101 13.857 2.97101 14.2513 3.08698 14.6211C3.23618 15.0968 3.66347 15.5059 4.51805 16.3242C5.37263 17.1425 5.79992 17.5516 6.29677 17.6944C6.68298 17.8055 7.09475 17.8055 7.48096 17.6944C7.97781 17.5516 8.4051 17.1425 9.25968 16.3242L15.0411 10.7885C15.8534 10.0107 16.2596 9.6218 16.5035 9.21724C17.1655 8.11941 17.1655 6.76681 16.5035 5.66897C16.2596 5.26442 15.8534 4.87554 15.0411 4.09777C14.2289 3.32 13.8227 2.93112 13.4002 2.69755C12.2536 2.06371 10.841 2.06371 9.69443 2.69755C9.27191 2.93112 8.86577 3.32 8.05348 4.09777L3.39503 8.55822" stroke="#28292A" stroke-opacity="0.5" stroke-linecap="round"/>
</svg>
