<svg width="24" height="24" viewBox="0 0 24 24" fill="none" xmlns="http://www.w3.org/2000/svg">
<path d="M12.3214 9C12.3214 8.58579 11.9856 8.25 11.5714 8.25C11.1572 8.25 10.8214 8.58579 10.8214 9H11.5714H12.3214ZM9.31144 14.5895C9.02729 14.8909 9.04126 15.3655 9.34265 15.6497C9.64403 15.9338 10.1187 15.9199 10.4028 15.6185L9.85714 15.104L9.31144 14.5895ZM3.38862 4.12863C3.06518 4.38739 3.01273 4.85936 3.27149 5.18281C3.53025 5.50625 4.00222 5.55869 4.32566 5.29994L3.85714 4.71429L3.38862 4.12863ZM6.46852 3.58565C6.79197 3.32689 6.84441 2.85493 6.58565 2.53148C6.32689 2.20803 5.85493 2.15559 5.53148 2.41435L6 3L6.46852 3.58565ZM18.8172 5.29994C19.1406 5.55869 19.6126 5.50625 19.8714 5.18281C20.1301 4.85936 20.0777 4.38739 19.7542 4.12863L19.2857 4.71429L18.8172 5.29994ZM17.6114 2.41435C17.2879 2.15559 16.816 2.20803 16.5572 2.53148C16.2984 2.85493 16.3509 3.32689 16.6743 3.58565L17.1429 3L17.6114 2.41435ZM11.0266 13.8635L11.5724 14.378L11.0266 13.8635ZM11.5714 9H10.8214V12.4916H11.5714H12.3214V9H11.5714ZM9.85714 15.104L10.4028 15.6185L11.5724 14.378L11.0266 13.8635L10.4809 13.3491L9.31144 14.5895L9.85714 15.104ZM3.85714 4.71429L4.32566 5.29994L6.46852 3.58565L6 3L5.53148 2.41435L3.38862 4.12863L3.85714 4.71429ZM19.2857 4.71429L19.7542 4.12863L17.6114 2.41435L17.1429 3L16.6743 3.58565L18.8172 5.29994L19.2857 4.71429ZM20.1429 12.4286H19.3929C19.3929 16.7482 15.8911 20.25 11.5714 20.25V21V21.75C16.7195 21.75 20.8929 17.5767 20.8929 12.4286H20.1429ZM11.5714 21V20.25C7.25177 20.25 3.75 16.7482 3.75 12.4286H3H2.25C2.25 17.5767 6.42335 21.75 11.5714 21.75V21ZM3 12.4286H3.75C3.75 8.10891 7.25177 4.60714 11.5714 4.60714V3.85714V3.10714C6.42335 3.10714 2.25 7.28049 2.25 12.4286H3ZM11.5714 3.85714V4.60714C15.8911 4.60714 19.3929 8.10891 19.3929 12.4286H20.1429H20.8929C20.8929 7.28049 16.7195 3.10714 11.5714 3.10714V3.85714ZM11.5714 12.4916H10.8214C10.8214 12.8104 10.6996 13.1171 10.4809 13.3491L11.0266 13.8635L11.5724 14.378C12.0535 13.8677 12.3214 13.1929 12.3214 12.4916H11.5714Z" fill="#2D264B"/>
</svg>
