<svg width="24" height="24" viewBox="0 0 24 24" fill="none" xmlns="http://www.w3.org/2000/svg">
<path d="M14.2383 19.0248L13.6481 18.562L13.6481 18.562L14.2383 19.0248ZM9.47244 19.0248L8.88227 19.4876L9.47244 19.0248ZM11.8554 21L11.8554 20.25L11.8554 21ZM18.7107 10.377H17.9607C17.9607 11.3983 17.4252 12.7839 16.5639 14.3065C15.7193 15.7998 14.6265 17.3144 13.6481 18.562L14.2383 19.0248L14.8284 19.4876C15.8294 18.2113 16.9728 16.6304 17.8695 15.045C18.7497 13.489 19.4607 11.8126 19.4607 10.377H18.7107ZM9.47244 19.0248L10.0626 18.562C9.08426 17.3144 7.99145 15.7998 7.1468 14.3065C6.28555 12.7839 5.75 11.3983 5.75 10.377H5H4.25C4.25 11.8126 4.96103 13.489 5.84119 15.045C6.73794 16.6304 7.88135 18.2113 8.88227 19.4876L9.47244 19.0248ZM5 10.377H5.75C5.75 6.66425 8.53431 3.75 11.8554 3.75V3V2.25C7.60419 2.25 4.25 5.94131 4.25 10.377H5ZM11.8554 3V3.75C15.1764 3.75 17.9607 6.66425 17.9607 10.377H18.7107H19.4607C19.4607 5.94131 16.1065 2.25 11.8554 2.25V3ZM14.2383 19.0248L13.6481 18.562C13.1153 19.2414 12.7725 19.6745 12.468 19.951C12.1957 20.1984 12.0299 20.25 11.8554 20.25L11.8554 21L11.8554 21.75C12.5148 21.75 13.0241 21.4724 13.4766 21.0614C13.897 20.6795 14.3286 20.125 14.8284 19.4876L14.2383 19.0248ZM9.47244 19.0248L8.88227 19.4876C9.38213 20.125 9.81373 20.6795 10.2341 21.0614C10.6866 21.4724 11.1959 21.75 11.8554 21.75L11.8554 21L11.8554 20.25C11.6808 20.25 11.515 20.1984 11.2427 19.951C10.9382 19.6745 10.5954 19.2414 10.0626 18.562L9.47244 19.0248ZM9.2846 10.7123H8.5346C8.5346 12.5463 10.0214 14.033 11.8554 14.033V13.283V12.533C10.8498 12.533 10.0346 11.7179 10.0346 10.7123H9.2846ZM11.8554 13.283V14.033C13.6894 14.033 15.1761 12.5463 15.1761 10.7123H14.4261H13.6761C13.6761 11.7179 12.8609 12.533 11.8554 12.533V13.283ZM14.4261 10.7123H15.1761C15.1761 8.87827 13.6894 7.39152 11.8554 7.39152V8.14152V8.89152C12.8609 8.89152 13.6761 9.7067 13.6761 10.7123H14.4261ZM11.8554 8.14152V7.39152C10.0214 7.39152 8.5346 8.87827 8.5346 10.7123H9.2846H10.0346C10.0346 9.7067 10.8498 8.89152 11.8554 8.89152V8.14152Z" fill="#2D264B"/>
</svg>
