<svg width="24" height="24" viewBox="0 0 24 24" fill="none" xmlns="http://www.w3.org/2000/svg">
<path d="M22 12C22 7.28595 22 4.92893 20.5355 3.46447C19.0711 2 16.714 2 12 2C7.28595 2 4.92893 2 3.46447 3.46447C2 4.92893 2 7.28595 2 12C2 16.714 2 19.0711 3.46447 20.5355C4.92893 22 7.28595 22 12 22C16.714 22 19.0711 22 20.5355 20.5355C22 19.0711 22 16.714 22 12Z" stroke="#28292A" stroke-width="1.5"/>
<path d="M15 15.5L12 12.5L9 15.5" stroke="#28292A" stroke-width="1.5" stroke-linecap="round" stroke-linejoin="round"/>
<path d="M15 11.5L12 8.5L9 11.5" stroke="#28292A" stroke-width="1.5" stroke-linecap="round" stroke-linejoin="round"/>
</svg>
