<svg width="28" height="28" viewBox="0 0 28 28" fill="none" xmlns="http://www.w3.org/2000/svg">
<path d="M14 0C21.732 0 28 6.26801 28 14C28 21.732 21.732 28 14 28C6.26801 28 0 21.732 0 14C0 6.26801 6.26801 0 14 0ZM14.0332 6C9.64294 6 6.06888 9.55654 6.06738 13.9277C6.06671 15.3251 6.43254 16.6896 7.12988 17.8916L6 22L10.2227 20.8975C11.3908 21.5308 12.7 21.8622 14.0303 21.8623H14.0342C18.4244 21.8621 21.9987 18.3055 22 13.9336C22.0032 12.8919 21.7985 11.86 21.3984 10.8975C20.9983 9.93476 20.4107 9.0603 19.6689 8.3252C18.9309 7.58582 18.0524 6.99974 17.085 6.60059C16.1176 6.20148 15.0804 5.99726 14.0332 6ZM14.0361 7.33984C15.8046 7.33984 17.4678 8.02615 18.7178 9.27148C19.3342 9.88248 19.8228 10.6091 20.1553 11.4092C20.4878 12.2094 20.658 13.0676 20.6553 13.9336C20.6538 17.5667 17.6834 20.5232 14.0342 20.5234H14.0312C12.8452 20.5237 11.6806 20.2061 10.6602 19.6045L10.4189 19.4619L7.91211 20.1162L8.58203 17.6846L8.42383 17.4355C7.76077 16.3851 7.4103 15.1692 7.41211 13.9287C7.41345 10.2955 10.3835 7.34004 14.0361 7.33984ZM11.2129 10.2666C11.0803 10.2666 10.8648 10.3161 10.6826 10.5146C10.4998 10.7126 9.98548 11.1919 9.98535 12.167C9.98535 13.1413 10.6976 14.0836 10.7979 14.2168C10.8977 14.3488 12.2015 16.3499 14.1982 17.208C14.6737 17.412 15.0443 17.5343 15.333 17.625C15.8098 17.7763 16.244 17.7544 16.5869 17.7031C16.9686 17.6465 17.7642 17.2242 17.9307 16.7617C18.0961 16.2991 18.0964 15.902 18.0469 15.8193C17.9973 15.7367 17.8655 15.6872 17.666 15.5879C17.4665 15.4886 16.4886 15.0104 16.3057 14.9434C16.1236 14.8774 15.9906 14.8447 15.8574 15.043C15.7248 15.2403 15.3434 15.6873 15.2275 15.8193C15.111 15.952 14.9949 15.9678 14.7959 15.8691C14.5966 15.7691 13.9553 15.5601 13.1953 14.8857C12.6041 14.3607 12.204 13.7127 12.0879 13.5137C11.972 13.3157 12.075 13.208 12.1748 13.1094C12.2646 13.0207 12.3738 12.878 12.4736 12.7627C12.5734 12.6467 12.6066 12.5642 12.6729 12.4316C12.7398 12.2998 12.7064 12.1842 12.6562 12.085C12.6067 11.9856 12.2081 11.0099 12.042 10.6133C11.8806 10.2275 11.7166 10.2801 11.5947 10.2734C11.4782 10.2681 11.3455 10.2666 11.2129 10.2666Z" fill="#FDFDFD"/>
</svg>
