<svg width="12" height="12" viewBox="0 0 12 12" fill="none" xmlns="http://www.w3.org/2000/svg">
<path d="M9.02229 4.81091L5.65577 1.44438C5.50052 1.28364 5.41461 1.06835 5.41655 0.84488C5.41849 0.621413 5.50813 0.407649 5.66615 0.249629C5.82417 0.091608 6.03793 0.00197408 6.2614 3.22186e-05C6.48487 -0.00190964 6.70015 0.083996 6.8609 0.239247L11.6823 5.06062C11.7617 5.13959 11.8247 5.23348 11.8677 5.33689C11.9107 5.4403 11.9329 5.55119 11.9329 5.66319C11.9329 5.77519 11.9107 5.88608 11.8677 5.98949C11.8247 6.0929 11.7617 6.18679 11.6823 6.26576L6.8609 11.0871C6.78228 11.1685 6.68823 11.2335 6.58425 11.2781C6.48027 11.3228 6.36843 11.3463 6.25526 11.3473C6.1421 11.3483 6.02987 11.3267 5.92513 11.2839C5.82038 11.241 5.72523 11.1777 5.6452 11.0977C5.56518 11.0177 5.50189 10.9225 5.45904 10.8178C5.41619 10.713 5.39462 10.6008 5.39561 10.4876C5.39659 10.3745 5.4201 10.2626 5.46477 10.1587C5.50943 10.0547 5.57436 9.96062 5.65577 9.882L9.02229 6.51548H0.852285C0.626245 6.51548 0.409463 6.42568 0.249629 6.26585C0.0897941 6.10601 0 5.88923 0 5.66319C0 5.43715 0.0897941 5.22037 0.249629 5.06053C0.409463 4.9007 0.626245 4.81091 0.852285 4.81091H9.02229Z" fill="#28292A"/>
</svg>
