<svg width="20" height="20" viewBox="0 0 20 20" fill="none" xmlns="http://www.w3.org/2000/svg">
<path fill-rule="evenodd" clip-rule="evenodd" d="M16.6301 4.65787C16.7015 4.58716 16.7835 4.45995 16.8537 4.43607C16.8682 4.42314 16.8147 4.40836 16.8323 4.37819C16.8752 4.36664 16.9209 4.34558 16.9755 4.29623C17.0167 4.35077 16.8865 4.41453 16.9152 4.46966C16.8705 4.50266 16.8485 4.51872 16.8476 4.5624C16.7505 4.62164 16.7551 4.67433 16.6783 4.71399C16.6733 4.66551 16.65 4.69959 16.6301 4.65788V4.65787ZM16.6209 4.68832C16.6246 4.69782 16.6307 4.6991 16.6387 4.69439C16.642 4.74502 16.5682 4.73513 16.6209 4.68832ZM3.34078 14.4786C3.40775 14.6621 3.56368 14.75 3.65497 14.8997C3.67317 14.9298 3.68464 14.9756 3.70515 15.0048C3.73916 15.0535 3.8026 15.1011 3.85263 15.1577C3.93825 15.2545 4.00012 15.3517 4.07596 15.4261C4.11181 15.6185 4.24704 15.6559 4.32291 15.7736C4.35141 15.8178 4.36171 15.8778 4.39485 15.9262C4.42274 15.967 4.46636 15.9905 4.49561 16.0366C4.50291 16.0481 4.50919 16.0606 4.51499 16.0738C4.51789 16.0803 4.52067 16.087 4.52338 16.0937L4.52741 16.1038L4.52841 16.1064C4.52872 16.1072 4.52899 16.1079 4.52988 16.1096L4.53425 16.1182C4.55752 16.1638 4.581 16.2093 4.60802 16.2485C4.64829 16.3072 4.69038 16.3415 4.72161 16.3904C4.76278 16.4548 4.7777 16.5102 4.82546 16.5743C4.8758 16.6418 4.94179 16.6852 4.99123 16.7518C5.08184 16.8737 5.16942 17.0112 5.2591 17.1415C5.34856 17.2716 5.44007 17.3943 5.53283 17.4785C5.54393 17.498 5.55496 17.5174 5.56567 17.5362C5.5998 17.5893 5.63429 17.6399 5.66902 17.6887L5.68206 17.7069C5.68643 17.7128 5.69068 17.7193 5.69527 17.7239L5.72245 17.7539C5.7406 17.7738 5.75879 17.7932 5.77705 17.8124C5.79529 17.8316 5.81359 17.8505 5.83195 17.8692C5.8504 17.8855 5.86897 17.8996 5.88757 17.9148C5.90618 17.9296 5.92485 17.9445 5.94358 17.9593C5.95296 17.9668 5.96235 17.9742 5.97176 17.9817L5.98589 17.9928L5.99297 17.9984L5.99992 18.0028C6.03704 18.026 6.0745 18.0497 6.1125 18.0746C6.12199 18.0809 6.13152 18.0871 6.1411 18.0934L6.15549 18.1031C6.16039 18.1066 6.16479 18.1083 6.16948 18.111C6.18798 18.1209 6.20664 18.1312 6.2255 18.142C6.24434 18.1526 6.26338 18.1638 6.28265 18.1756C6.29228 18.1814 6.30197 18.1874 6.31173 18.1935C6.31659 18.1965 6.32149 18.1996 6.3264 18.2027C6.33146 18.2062 6.33575 18.2078 6.34049 18.2105C6.37757 18.2301 6.41565 18.2517 6.45511 18.2761C6.46558 18.2781 6.4757 18.2799 6.48558 18.2818C6.4953 18.2835 6.50533 18.2863 6.51397 18.287C6.53176 18.2893 6.54887 18.2923 6.56604 18.2965C6.57476 18.2988 6.58351 18.3011 6.59238 18.3034C6.6018 18.3062 6.61135 18.3089 6.62112 18.3118C6.63187 18.315 6.64286 18.3183 6.6542 18.3218C6.66016 18.3237 6.66622 18.3256 6.67239 18.3275C6.67891 18.3295 6.68553 18.3315 6.69229 18.3334C6.7044 18.3318 6.7103 18.3258 6.71845 18.3205C6.72663 18.3152 6.73591 18.312 6.75645 18.3139C6.8145 18.3238 6.87741 18.3222 6.93656 18.3098C6.99568 18.2978 7.05107 18.2772 7.09489 18.2534L7.1103 18.2444L7.11798 18.24C7.12051 18.2386 7.12307 18.2372 7.1258 18.2346L7.15793 18.2078C7.17936 18.1901 7.2008 18.1728 7.22233 18.1565C7.2654 18.1238 7.30877 18.0945 7.35346 18.0727C7.3576 18.0574 7.36284 18.0422 7.37283 18.0275C7.43394 17.9967 7.49919 17.9611 7.56539 17.9219C7.59849 17.9023 7.63184 17.8819 7.66494 17.8606C7.68153 17.85 7.69804 17.8393 7.71446 17.8284L7.71753 17.8263L7.71903 17.8253L7.72061 17.823L7.72666 17.8139L7.73869 17.7957C7.74673 17.7835 7.75478 17.7712 7.76274 17.7591C7.89024 17.5635 8.00753 17.3648 8.08783 17.1986C8.12823 17.1548 8.16788 17.1024 8.20695 17.0445C8.22652 17.0156 8.24593 16.9853 8.26534 16.9541C8.27496 16.9383 8.28467 16.9225 8.29446 16.9065C8.304 16.8902 8.31412 16.8749 8.32308 16.8566C8.39674 16.715 8.47032 16.5633 8.55286 16.4179C8.59176 16.3494 8.63406 16.286 8.67529 16.2224C8.71652 16.1588 8.75667 16.0952 8.79027 16.0279C8.80669 15.995 8.82419 15.9614 8.84253 15.9272C8.85174 15.9102 8.8611 15.893 8.87065 15.8755C8.87546 15.8669 8.88027 15.8582 8.88508 15.8495C8.88923 15.8421 8.89337 15.8348 8.89752 15.8274C8.92025 15.7882 8.94472 15.7486 8.96928 15.7093C9.01839 15.6306 9.06774 15.5533 9.10382 15.4829C9.12531 15.441 9.1312 15.3877 9.15177 15.3463C9.17043 15.3087 9.19549 15.2746 9.22037 15.2396C9.24551 15.2047 9.27089 15.1693 9.28956 15.1282C9.3614 14.9696 9.45438 14.8125 9.5487 14.6637C9.57218 14.6263 9.5964 14.59 9.62037 14.5544C9.64435 14.5188 9.66807 14.4837 9.69121 14.4493C9.73758 14.3806 9.78188 14.3147 9.82153 14.2523C9.87064 14.1751 9.89337 14.0921 9.94165 13.9994C10.0233 13.8478 10.1516 13.7298 10.2374 13.5809C10.2589 13.5435 10.2701 13.498 10.2893 13.4628C10.3386 13.3714 10.4051 13.3026 10.4642 13.2127C10.5367 13.103 10.6019 12.9862 10.6697 12.8743C10.6867 12.8464 10.7039 12.8188 10.7213 12.7917C10.73 12.7781 10.7388 12.7647 10.7478 12.7515C10.7568 12.7383 10.766 12.7254 10.7753 12.7126C10.8125 12.6616 10.8515 12.6134 10.8937 12.5696C10.9654 12.4229 11.07 12.2582 11.1829 12.0929C11.2978 11.9295 11.4203 11.7649 11.5247 11.6144C11.5335 11.5655 11.556 11.5321 11.5819 11.5019C11.6077 11.4714 11.6378 11.4449 11.6612 11.4093C11.7335 11.2994 11.811 11.1688 11.8942 11.0416C11.9774 10.9146 12.065 10.7899 12.1611 10.6961C12.4849 10.2156 12.8415 9.75134 13.2053 9.29754C13.3881 9.07172 13.5678 8.84247 13.751 8.62047C13.933 8.39701 14.1088 8.16874 14.2846 7.94565C14.3645 7.90716 14.4423 7.78945 14.4798 7.71406C14.5042 7.71856 14.5379 7.6794 14.5683 7.6555C14.5834 7.61878 14.6039 7.58519 14.6279 7.55327C14.6399 7.53731 14.6527 7.52183 14.6661 7.50646C14.6797 7.49128 14.694 7.47659 14.7087 7.4618C14.7673 7.40265 14.8322 7.34428 14.8884 7.27446C14.8867 7.19935 14.9834 7.15303 15.0052 7.07293C15.0426 7.07566 14.994 7.12081 15.0373 7.09829C15.0475 7.01848 15.1263 6.91742 15.2154 6.81802C15.2598 6.76799 15.3077 6.71961 15.3505 6.67407C15.3935 6.62854 15.4316 6.58623 15.4579 6.54991C15.4494 6.55833 15.439 6.54853 15.4485 6.5361C15.4921 6.52562 15.4774 6.47244 15.5111 6.43983C15.6181 6.323 15.6979 6.20647 15.7715 6.09043C15.8081 6.03225 15.844 5.97527 15.8812 5.91906C15.9185 5.86275 15.957 5.80722 15.9998 5.75288C16.0318 5.74044 16.1195 5.71097 16.1214 5.66004C16.0833 5.68903 16.0412 5.73476 16.0209 5.69892C16.0857 5.65261 16.1519 5.56447 16.1724 5.50052C16.2421 5.42805 16.291 5.41023 16.3382 5.32347C16.3543 5.30888 16.2991 5.30368 16.3334 5.27206C16.4467 5.19323 16.4779 5.11566 16.58 5.04653C16.5825 5.01823 16.6089 4.97631 16.6402 4.93979C16.6717 4.90365 16.7082 4.87291 16.7306 4.86605C16.7511 4.82443 16.6797 4.87006 16.6998 4.83844C16.7762 4.75128 16.8447 4.66589 16.9354 4.61624C16.9446 4.58373 16.9438 4.55181 16.9722 4.51832C16.9919 4.49658 16.9869 4.55523 17.0119 4.51616C17.0298 4.47082 16.9679 4.50528 16.9594 4.47473C16.9939 4.42509 16.9746 4.41569 16.983 4.3773C17.054 4.34292 17.0686 4.26733 17.1144 4.2071C17.1613 4.14491 17.2309 4.10241 17.2775 4.04424C17.3177 3.9945 17.3218 3.95259 17.3742 3.90675C17.4165 3.86915 17.4681 3.86318 17.5141 3.81989C17.5354 3.79228 17.4808 3.80833 17.5154 3.77563C17.5955 3.69895 17.6753 3.62188 17.7475 3.54589C17.8198 3.47029 17.884 3.39478 17.9319 3.31957C17.8545 3.42867 17.7723 3.49761 17.6928 3.5642C17.6137 3.63108 17.5369 3.69493 17.4706 3.79178C17.4256 3.78189 17.4093 3.87609 17.3578 3.85544C17.3583 3.88354 17.404 3.86248 17.3656 3.89226C17.3519 3.90058 17.3422 3.89686 17.3251 3.91625C17.3243 3.85799 17.2897 3.88883 17.2596 3.87473C17.1908 3.9379 17.132 3.99812 17.0754 4.05619C17.0191 4.11474 16.9653 4.17115 16.9058 4.226C16.8895 4.25489 16.935 4.23314 16.9141 4.26252C16.8727 4.31012 16.8344 4.33636 16.7876 4.39561C16.7535 4.38288 16.7087 4.40266 16.7041 4.349C16.785 4.27604 16.8719 4.17704 16.9617 4.07264C16.9841 4.0466 17.0068 4.02035 17.0296 3.99401C17.0526 3.96797 17.0757 3.94201 17.099 3.91654C17.1457 3.86553 17.1928 3.81627 17.2403 3.77161C17.2691 3.74449 17.3031 3.72451 17.3307 3.70189C17.3585 3.67956 17.3798 3.65469 17.3827 3.61738C17.3038 3.70728 17.203 3.72167 17.1243 3.78444C17.0736 3.82537 17.0292 3.88012 16.9848 3.93417C16.9408 3.98881 16.8968 4.04258 16.8463 4.08106C16.8177 4.1027 16.7985 4.10016 16.7744 4.12229C16.7555 4.13952 16.737 4.18937 16.715 4.20739C16.691 4.22708 16.6797 4.21317 16.6612 4.23305C16.623 4.27359 16.6072 4.3253 16.562 4.36603C16.4866 4.43419 16.3955 4.47571 16.3201 4.56149C16.297 4.56326 16.2829 4.52664 16.2982 4.50362C16.3961 4.4143 16.4119 4.39776 16.5094 4.30277C16.4962 4.31001 16.4853 4.31011 16.4783 4.29748C16.5103 4.27104 16.5269 4.26967 16.537 4.23382C16.464 4.30374 16.435 4.2442 16.4438 4.19582C16.4913 4.15558 16.5399 4.11053 16.589 4.06421C16.6382 4.01828 16.6877 3.97069 16.7364 3.92437C16.7851 3.87805 16.8329 3.83291 16.879 3.79198C16.9252 3.75133 16.9698 3.7152 17.0114 3.68592C17.0187 3.65595 17.0168 3.62638 17.0407 3.59543C17.0811 3.55234 17.1243 3.51043 17.1689 3.46881C17.2138 3.42749 17.2605 3.38684 17.3074 3.34581C17.4013 3.26375 17.4966 3.18003 17.5856 3.091C17.345 3.23339 17.1383 3.4546 16.904 3.69139C16.8903 3.69316 16.8854 3.6672 16.8638 3.69335C16.7722 3.80744 16.6479 3.913 16.5717 3.9935C16.5159 3.99615 16.4611 3.9981 16.4066 3.99752C16.2879 4.12854 16.161 4.2058 16.0349 4.2816C15.9086 4.35691 15.7805 4.42722 15.6605 4.54395C15.6474 4.52211 15.6243 4.53416 15.6069 4.52672C15.6146 4.49117 15.6123 4.4566 15.6247 4.42047C15.6635 4.38111 15.6961 4.33037 15.7415 4.31216C15.7822 4.24841 15.8328 4.18593 15.8894 4.12394C15.946 4.06205 16.0083 3.99997 16.0738 3.93876C16.2042 3.81567 16.3425 3.68953 16.4606 3.5543C16.4695 3.49094 16.4273 3.48683 16.3861 3.47723C16.2476 3.57066 16.1668 3.72489 16.0068 3.80392C15.9052 3.76641 15.9167 3.66378 16.0156 3.56439C16.0565 3.52326 16.1057 3.47596 16.1585 3.42689C16.2115 3.37832 16.268 3.32789 16.323 3.27981C16.378 3.23163 16.4315 3.1858 16.4785 3.14653C16.5259 3.10765 16.5668 3.07524 16.5964 3.05321C16.6553 2.99102 16.7147 2.92992 16.7748 2.86959C16.835 2.80957 16.8962 2.7511 16.9575 2.69274C17.0191 2.63476 17.0805 2.5764 17.1432 2.51999C17.2058 2.46359 17.2685 2.40708 17.3313 2.35048C17.3941 2.29378 17.4577 2.23816 17.5213 2.18214C17.5847 2.12583 17.6482 2.06943 17.7119 2.01282C17.7759 1.95652 17.8397 1.89972 17.9034 1.84194C17.9351 1.81295 17.967 1.78387 17.9988 1.75469C18.0306 1.7254 18.0625 1.69613 18.0944 1.66675C18.0179 1.72257 17.9457 1.7823 17.8756 1.84262C17.8055 1.90314 17.7373 1.96366 17.6704 2.02398C17.5369 2.14512 17.4054 2.2598 17.2662 2.35674C17.2767 2.37133 17.2715 2.38651 17.2503 2.40218C16.9888 2.61272 16.7086 2.86331 16.505 3.08845C16.4422 3.10441 16.3764 3.16865 16.31 3.23221C16.2438 3.29595 16.1774 3.35961 16.114 3.37675C16.0853 3.27676 16.1384 3.1708 16.2219 3.06269C16.1264 3.15739 16.0168 3.21458 15.9315 3.28655C15.8614 3.34521 15.7605 3.47722 15.7149 3.49191C15.7039 3.49543 15.709 3.46468 15.6926 3.47869C15.7069 3.46645 15.6953 3.47908 15.6795 3.49544C15.6639 3.51198 15.6442 3.53265 15.6419 3.53588C15.6114 3.57966 15.622 3.57887 15.5776 3.61697C15.52 3.66632 15.5203 3.66417 15.473 3.67925C15.423 3.72165 15.3748 3.76572 15.3278 3.81126C15.281 3.85689 15.2351 3.9035 15.1891 3.94993C15.1432 3.99635 15.0972 4.04267 15.0501 4.08781C15.0029 4.13275 14.9555 4.17771 14.9056 4.21982C14.8849 4.23744 14.8461 4.27769 14.8425 4.27994C14.8214 4.29267 14.8271 4.26427 14.8018 4.28484C14.7875 4.29649 14.8049 4.30677 14.784 4.3244C14.7451 4.3575 14.7033 4.39284 14.6626 4.42957C14.622 4.46658 14.5821 4.50458 14.5462 4.54199C14.5014 4.5889 14.4536 4.63649 14.4046 4.68379C14.3555 4.73099 14.306 4.77868 14.2575 4.8254C14.1604 4.91872 14.0674 5.00754 13.995 5.085C13.9589 5.11438 13.9849 5.0468 13.941 5.09322C13.8752 5.15521 13.8085 5.21827 13.7412 5.28252C13.7076 5.31474 13.6738 5.34705 13.6399 5.37956C13.6063 5.41266 13.5726 5.44586 13.5388 5.47926C13.4712 5.54613 13.4032 5.614 13.3351 5.68255C13.3181 5.69978 13.3011 5.71702 13.2841 5.73425C13.2673 5.75178 13.2505 5.76932 13.2337 5.78694C13.2001 5.82219 13.1664 5.85755 13.1327 5.89299C13.111 5.91248 13.1047 5.86675 13.0788 5.90308C13.0388 5.93824 13.0722 5.95988 13.038 5.99396C13.0111 6.00797 12.9848 6.01894 12.9621 6.0157C12.6387 6.32281 12.3557 6.70256 12.0588 7.06411C11.7875 7.40754 11.5039 7.73815 11.2497 8.06767C11.1992 8.13211 11.1505 8.19723 11.1028 8.26186C11.0789 8.29427 11.0552 8.32649 11.0317 8.35841C11.0082 8.39043 10.9846 8.42206 10.9619 8.45408C10.8703 8.58158 10.779 8.70292 10.681 8.80985C10.6251 8.89221 10.5701 8.97065 10.5155 9.04655C10.5019 9.06545 10.4883 9.08425 10.4747 9.10305C10.4614 9.12195 10.448 9.14076 10.4348 9.15946C10.408 9.19677 10.3815 9.23369 10.3551 9.27041C10.2489 9.417 10.1427 9.559 10.0333 9.70775C9.99353 9.76103 9.9528 9.81567 9.91199 9.87041C9.87084 9.92495 9.82962 9.97959 9.78922 10.0332C9.70859 10.1406 9.63245 10.2451 9.57305 10.342C9.55265 10.3756 9.5388 10.4257 9.5125 10.4623C9.47351 10.5181 9.41453 10.5549 9.37521 10.6102C9.26879 10.7599 9.18434 10.9369 9.078 11.0855C8.95955 11.2531 8.84565 11.4143 8.72935 11.579C8.66407 11.6722 8.62077 11.78 8.56047 11.8764C8.52023 11.9401 8.46101 11.991 8.41845 12.0566C8.3589 12.1484 8.30498 12.2466 8.25106 12.3428C8.19673 12.4384 8.14505 12.5345 8.0864 12.6192C8.00842 12.7327 7.92473 12.8437 7.84526 12.959C7.82535 12.9879 7.80578 13.017 7.78653 13.0465C7.76762 13.0762 7.74929 13.1065 7.73145 13.1372C7.69587 13.1986 7.66252 13.262 7.63283 13.3281C7.58803 13.3908 7.54191 13.4577 7.49579 13.5273C7.44978 13.5969 7.40267 13.668 7.35874 13.7413C7.27001 13.8873 7.1855 14.0345 7.11433 14.167C7.09273 14.1879 7.0726 14.2103 7.05358 14.2338C7.04408 14.2456 7.03486 14.2576 7.02588 14.27L7.01317 14.2876C7.01172 14.2891 7.01032 14.2906 7.00899 14.2922C6.99833 14.3046 6.99129 14.3202 6.98495 14.3375C6.9725 14.3718 6.9619 14.4149 6.93829 14.4413C6.93332 14.4469 6.92355 14.4398 6.9177 14.4431C6.89836 14.4539 6.88519 14.4704 6.87332 14.4927C6.86161 14.5149 6.85168 14.5423 6.84145 14.5705C6.83123 14.5985 6.82127 14.6278 6.81022 14.6505C6.79929 14.6732 6.7876 14.6896 6.77578 14.6903C6.77284 14.737 6.76572 14.7494 6.75704 14.7482C6.74767 14.7468 6.7352 14.7299 6.72321 14.7241C6.71022 14.7177 6.69792 14.7225 6.68726 14.7245C6.67642 14.7269 6.66921 14.7255 6.66087 14.7146C6.65547 14.7072 6.65224 14.6741 6.64743 14.6637C6.64 14.6474 6.63175 14.6442 6.62249 14.6421C6.6133 14.64 6.60307 14.6389 6.59323 14.6291C6.58311 14.6189 6.57498 14.5957 6.56784 14.5715C6.56063 14.5471 6.55443 14.5217 6.54606 14.5042C6.53844 14.4883 6.52901 14.4787 6.51366 14.4794C6.50874 14.446 6.50346 14.4101 6.49451 14.3835C6.48541 14.3567 6.47246 14.3391 6.44752 14.3356C6.44735 14.322 6.44613 14.3106 6.44393 14.3005C6.44337 14.2981 6.44276 14.2956 6.44209 14.2933C6.44246 14.2935 6.44031 14.2899 6.43917 14.288L6.43512 14.281L6.42696 14.2674C6.41602 14.2492 6.40483 14.2312 6.39341 14.2135C6.34775 14.1423 6.29861 14.074 6.24856 14.0063C6.14846 13.8708 6.04471 13.7372 5.95781 13.5858C5.89912 13.4836 5.87062 13.3671 5.77717 13.2964C5.74015 13.1666 5.64053 13.0642 5.56111 12.9385C5.4826 12.8145 5.41515 12.6715 5.33633 12.5388C5.22394 12.3496 5.04696 12.1499 5.01898 11.955C5.10926 11.7683 4.83402 11.8334 4.76287 11.6653C4.71633 11.4771 4.53453 11.3484 4.39528 11.1946C4.36628 11.1625 4.33913 11.1293 4.31544 11.0944C4.16079 10.8661 4.04183 10.6071 3.91119 10.3597C3.67517 9.91278 3.33014 9.4582 2.88405 9.45908C2.54665 9.45977 2.25582 9.72358 1.9939 9.97467C1.79998 10.1605 1.5995 10.3562 1.49604 10.6246C1.27058 11.2095 1.655 11.7132 1.89952 12.1993C2.12456 12.6466 2.38009 13.0726 2.66291 13.4717C2.88515 13.7852 3.06379 14.23 3.34089 14.4785L3.34078 14.4786Z" fill="#11A761"/>
</svg>
