<svg width="24" height="24" viewBox="0 0 24 24" fill="none" xmlns="http://www.w3.org/2000/svg">
<path d="M12 5.66675V19.0001M12 22.3334V19.0001M12 19.0001L14.5 21.5001M12 19.0001L9.5 21.5001M14.5 6.50008L12 9.00008L9.5 6.50008" stroke="#28292A" stroke-opacity="0.85" stroke-width="1.5" stroke-linecap="round"/>
<path d="M4.78612 9.83336L7.67288 11.5M7.67288 11.5L16.3331 16.5M7.67288 11.5L6.75781 8.08496M7.67288 11.5L4.25781 12.4151M16.3331 16.5L19.2199 18.1667M16.3331 16.5L19.7482 15.585M16.3331 16.5L17.2482 19.9151" stroke="#28292A" stroke-opacity="0.85" stroke-width="1.5" stroke-linecap="round"/>
<path d="M19.216 9.83336L16.3292 11.5M16.3292 11.5L7.66897 16.5M16.3292 11.5L17.2443 8.08496M16.3292 11.5L19.7443 12.4151M7.66897 16.5L4.78222 18.1667M7.66897 16.5L4.25391 15.585M7.66897 16.5L6.75391 19.9151" stroke="#28292A" stroke-opacity="0.85" stroke-width="1.5" stroke-linecap="round"/>
</svg>
