<svg width="120" height="69" viewBox="0 0 120 69" fill="none" xmlns="http://www.w3.org/2000/svg">
<path d="M7.15025 44.9574C8.27225 44.9574 9.28092 45.1274 10.1763 45.4674C11.0716 45.8074 11.7799 46.3118 12.3013 46.9804C12.8339 47.6378 13.1003 48.4424 13.1003 49.3944H9.51325C9.51325 48.9071 9.29792 48.5161 8.86725 48.2214C8.43659 47.9154 7.91525 47.7624 7.30325 47.7624C6.41925 47.7624 5.75059 48.0004 5.29725 48.4764C4.84392 48.9411 4.61725 49.6041 4.61725 50.4654V51.5534C4.61725 52.4148 4.84392 53.0834 5.29725 53.5594C5.75059 54.0241 6.41925 54.2564 7.30325 54.2564C7.91525 54.2564 8.43659 54.1148 8.86725 53.8314C9.29792 53.5368 9.51325 53.1628 9.51325 52.7094H6.86125V50.3294H13.1003V56.8574H11.1623L10.7883 55.7014C9.72292 56.6081 8.32892 57.0614 6.60625 57.0614C4.66825 57.0614 3.21192 56.5571 2.23725 55.5484C1.26259 54.5284 0.775254 53.0154 0.775254 51.0094C0.775254 49.0261 1.32492 47.5244 2.42425 46.5044C3.53492 45.4731 5.11025 44.9574 7.15025 44.9574ZM26.5304 48.7484C26.5304 49.4624 26.3377 50.1084 25.9524 50.6864C25.5671 51.2644 25.0061 51.6894 24.2694 51.9614L26.8704 56.8574H22.6544L20.5804 52.5904H19.1864V56.8574H15.4294V45.1614H22.5864C23.4251 45.1614 24.1391 45.3258 24.7284 45.6544C25.3291 45.9718 25.7767 46.4081 26.0714 46.9634C26.3774 47.5074 26.5304 48.1024 26.5304 48.7484ZM22.7054 48.9014C22.7054 48.5954 22.6034 48.3404 22.3994 48.1364C22.1954 47.9324 21.9461 47.8304 21.6514 47.8304H19.1864V49.9894H21.6514C21.9461 49.9894 22.1954 49.8874 22.3994 49.6834C22.6034 49.4681 22.7054 49.2074 22.7054 48.9014ZM34.1926 44.9574C36.2099 44.9574 37.7683 45.4731 38.8676 46.5044C39.9669 47.5358 40.5166 49.0374 40.5166 51.0094C40.5166 52.9814 39.9669 54.4831 38.8676 55.5144C37.7683 56.5458 36.2099 57.0614 34.1926 57.0614C32.1753 57.0614 30.6169 56.5514 29.5176 55.5314C28.4296 54.5001 27.8856 52.9928 27.8856 51.0094C27.8856 49.0261 28.4296 47.5244 29.5176 46.5044C30.6169 45.4731 32.1753 44.9574 34.1926 44.9574ZM34.1926 47.7624C33.3879 47.7624 32.7759 48.0061 32.3566 48.4934C31.9373 48.9808 31.7276 49.6381 31.7276 50.4654V51.5534C31.7276 52.3808 31.9373 53.0381 32.3566 53.5254C32.7759 54.0128 33.3879 54.2564 34.1926 54.2564C34.9973 54.2564 35.6093 54.0128 36.0286 53.5254C36.4593 53.0381 36.6746 52.3808 36.6746 51.5534V50.4654C36.6746 49.6381 36.4593 48.9808 36.0286 48.4934C35.6093 48.0061 34.9973 47.7624 34.1926 47.7624ZM47.4527 44.9574C48.9487 44.9574 50.1784 45.2634 51.1417 45.8754C52.1051 46.4761 52.5981 47.3714 52.6207 48.5614V48.7654H49.1017V48.6974C49.1017 48.3574 48.9771 48.0741 48.7277 47.8474C48.4784 47.6208 48.0987 47.5074 47.5887 47.5074C47.0901 47.5074 46.7047 47.5811 46.4327 47.7284C46.1721 47.8758 46.0417 48.0571 46.0417 48.2724C46.0417 48.5784 46.2231 48.8051 46.5857 48.9524C46.9484 49.0998 47.5321 49.2528 48.3367 49.4114C49.2774 49.6041 50.0481 49.8081 50.6487 50.0234C51.2607 50.2274 51.7934 50.5674 52.2467 51.0434C52.7001 51.5194 52.9324 52.1654 52.9437 52.9814C52.9437 54.3641 52.4734 55.3898 51.5327 56.0584C50.6034 56.7271 49.3567 57.0614 47.7927 57.0614C45.9681 57.0614 44.5457 56.7554 43.5257 56.1434C42.5171 55.5314 42.0127 54.4491 42.0127 52.8964H45.5657C45.5657 53.4858 45.7187 53.8824 46.0247 54.0864C46.3307 54.2791 46.8067 54.3754 47.4527 54.3754C47.9287 54.3754 48.3197 54.3244 48.6257 54.2224C48.9431 54.1204 49.1017 53.9108 49.1017 53.5934C49.1017 53.3101 48.9261 53.1004 48.5747 52.9644C48.2347 52.8171 47.6737 52.6641 46.8917 52.5054C45.9397 52.3014 45.1521 52.0918 44.5287 51.8764C43.9054 51.6498 43.3614 51.2814 42.8967 50.7714C42.4321 50.2614 42.1997 49.5701 42.1997 48.6974C42.1997 47.4168 42.6927 46.4761 43.6787 45.8754C44.6761 45.2634 45.9341 44.9574 47.4527 44.9574ZM59.7213 44.9574C61.2173 44.9574 62.447 45.2634 63.4103 45.8754C64.3736 46.4761 64.8666 47.3714 64.8893 48.5614V48.7654H61.3703V48.6974C61.3703 48.3574 61.2456 48.0741 60.9963 47.8474C60.747 47.6208 60.3673 47.5074 59.8573 47.5074C59.3586 47.5074 58.9733 47.5811 58.7013 47.7284C58.4406 47.8758 58.3103 48.0571 58.3103 48.2724C58.3103 48.5784 58.4916 48.8051 58.8543 48.9524C59.217 49.0998 59.8006 49.2528 60.6053 49.4114C61.546 49.6041 62.3166 49.8081 62.9173 50.0234C63.5293 50.2274 64.062 50.5674 64.5153 51.0434C64.9686 51.5194 65.201 52.1654 65.2123 52.9814C65.2123 54.3641 64.742 55.3898 63.8013 56.0584C62.872 56.7271 61.6253 57.0614 60.0613 57.0614C58.2366 57.0614 56.8143 56.7554 55.7943 56.1434C54.7856 55.5314 54.2813 54.4491 54.2813 52.8964H57.8343C57.8343 53.4858 57.9873 53.8824 58.2933 54.0864C58.5993 54.2791 59.0753 54.3754 59.7213 54.3754C60.1973 54.3754 60.5883 54.3244 60.8943 54.2224C61.2116 54.1204 61.3703 53.9108 61.3703 53.5934C61.3703 53.3101 61.1946 53.1004 60.8433 52.9644C60.5033 52.8171 59.9423 52.6641 59.1603 52.5054C58.2083 52.3014 57.4206 52.0918 56.7973 51.8764C56.174 51.6498 55.63 51.2814 55.1653 50.7714C54.7006 50.2614 54.4683 49.5701 54.4683 48.6974C54.4683 47.4168 54.9613 46.4761 55.9473 45.8754C56.9446 45.2634 58.2026 44.9574 59.7213 44.9574ZM73.8088 48.1534V56.8574H70.0518V48.1534H66.2098V45.1614H77.6338V48.1534H73.8088ZM84.5783 44.9574C86.5957 44.9574 88.154 45.4731 89.2533 46.5044C90.3527 47.5358 90.9023 49.0374 90.9023 51.0094C90.9023 52.9814 90.3527 54.4831 89.2533 55.5144C88.154 56.5458 86.5957 57.0614 84.5783 57.0614C82.561 57.0614 81.0027 56.5514 79.9033 55.5314C78.8153 54.5001 78.2713 52.9928 78.2713 51.0094C78.2713 49.0261 78.8153 47.5244 79.9033 46.5044C81.0027 45.4731 82.561 44.9574 84.5783 44.9574ZM84.5783 47.7624C83.7737 47.7624 83.1617 48.0061 82.7423 48.4934C82.323 48.9808 82.1133 49.6381 82.1133 50.4654V51.5534C82.1133 52.3808 82.323 53.0381 82.7423 53.5254C83.1617 54.0128 83.7737 54.2564 84.5783 54.2564C85.383 54.2564 85.995 54.0128 86.4143 53.5254C86.845 53.0381 87.0603 52.3808 87.0603 51.5534V50.4654C87.0603 49.6381 86.845 48.9808 86.4143 48.4934C85.995 48.0061 85.383 47.7624 84.5783 47.7624ZM104.57 52.1484C104.57 53.7464 104.066 54.9648 103.057 55.8034C102.049 56.6421 100.615 57.0614 98.7565 57.0614C96.8978 57.0614 95.4585 56.6421 94.4385 55.8034C93.4298 54.9648 92.9255 53.7464 92.9255 52.1484V45.1614H96.6825V52.0974C96.6825 52.7548 96.8581 53.2818 97.2095 53.6784C97.5608 54.0638 98.0708 54.2564 98.7395 54.2564C99.4081 54.2564 99.9181 54.0581 100.269 53.6614C100.632 53.2648 100.813 52.7434 100.813 52.0974V45.1614H104.57V52.1484ZM115.451 56.8574L110.538 51.1794V56.8574H107.087V45.1614H110.368L115.281 50.9244V45.1614H118.732V56.8574H115.451Z" fill="#FDFDFD"/>
<path d="M5.36688 66.8574V63.3074H8.04688V66.8574H7.69688V63.6174H5.71688V66.8574H5.36688ZM8.93621 66.8574V63.3074H10.4062C10.5595 63.3074 10.6995 63.3391 10.8262 63.4024C10.9562 63.4658 11.0679 63.5524 11.1612 63.6624C11.2545 63.7691 11.3279 63.8891 11.3812 64.0224C11.4345 64.1524 11.4612 64.2858 11.4612 64.4224C11.4612 64.6158 11.4179 64.7991 11.3312 64.9724C11.2479 65.1424 11.1295 65.2808 10.9762 65.3874C10.8229 65.4941 10.6429 65.5474 10.4362 65.5474H9.28621V66.8574H8.93621ZM9.28621 65.2374H10.4212C10.5612 65.2374 10.6829 65.1991 10.7862 65.1224C10.8895 65.0458 10.9695 64.9458 11.0262 64.8224C11.0829 64.6991 11.1112 64.5658 11.1112 64.4224C11.1112 64.2758 11.0779 64.1408 11.0112 64.0174C10.9445 63.8941 10.8562 63.7974 10.7462 63.7274C10.6395 63.6541 10.5212 63.6174 10.3912 63.6174H9.28621V65.2374ZM13.4766 66.8824C13.2266 66.8824 12.9999 66.8324 12.7966 66.7324C12.5932 66.6324 12.4182 66.4974 12.2716 66.3274C12.1249 66.1541 12.0116 65.9608 11.9316 65.7474C11.8516 65.5308 11.8116 65.3091 11.8116 65.0824C11.8116 64.8458 11.8532 64.6208 11.9366 64.4074C12.0199 64.1908 12.1366 63.9991 12.2866 63.8324C12.4399 63.6624 12.6182 63.5291 12.8216 63.4324C13.0249 63.3324 13.2449 63.2824 13.4816 63.2824C13.7316 63.2824 13.9582 63.3341 14.1616 63.4374C14.3649 63.5408 14.5382 63.6791 14.6816 63.8524C14.8282 64.0258 14.9416 64.2191 15.0216 64.4324C15.1016 64.6458 15.1416 64.8641 15.1416 65.0874C15.1416 65.3241 15.0999 65.5508 15.0166 65.7674C14.9332 65.9808 14.8166 66.1724 14.6666 66.3424C14.5166 66.5091 14.3399 66.6408 14.1366 66.7374C13.9332 66.8341 13.7132 66.8824 13.4766 66.8824ZM12.1616 65.0824C12.1616 65.2758 12.1932 65.4624 12.2566 65.6424C12.3199 65.8191 12.4099 65.9774 12.5266 66.1174C12.6432 66.2541 12.7816 66.3641 12.9416 66.4474C13.1049 66.5274 13.2832 66.5674 13.4766 66.5674C13.6799 66.5674 13.8616 66.5258 14.0216 66.4424C14.1849 66.3558 14.3232 66.2424 14.4366 66.1024C14.5532 65.9591 14.6416 65.7991 14.7016 65.6224C14.7616 65.4458 14.7916 65.2658 14.7916 65.0824C14.7916 64.8891 14.7599 64.7041 14.6966 64.5274C14.6332 64.3508 14.5416 64.1924 14.4216 64.0524C14.3049 63.9124 14.1666 63.8024 14.0066 63.7224C13.8466 63.6424 13.6699 63.6024 13.4766 63.6024C13.2766 63.6024 13.0949 63.6441 12.9316 63.7274C12.7716 63.8108 12.6332 63.9241 12.5166 64.0674C12.4032 64.2074 12.3149 64.3658 12.2516 64.5424C12.1916 64.7191 12.1616 64.8991 12.1616 65.0824ZM15.8214 66.8574V63.3074H16.1664V66.3774L18.3664 63.3074H18.6914V66.8574H18.3464V63.8424L16.1714 66.8574H15.8214ZM20.4903 66.9024C20.2469 66.9024 20.0286 66.8508 19.8353 66.7474C19.6419 66.6408 19.4903 66.4941 19.3803 66.3074L19.6503 66.1424C19.7336 66.2891 19.8469 66.4024 19.9903 66.4824C20.1336 66.5624 20.2986 66.6024 20.4853 66.6024C20.7386 66.6024 20.9386 66.5374 21.0853 66.4074C21.2353 66.2741 21.3103 66.0974 21.3103 65.8774C21.3103 65.7374 21.2786 65.6141 21.2153 65.5074C21.1553 65.3974 21.0686 65.3124 20.9553 65.2524C20.8419 65.1924 20.7053 65.1624 20.5453 65.1624H20.2053V64.8824H20.5503C20.6736 64.8824 20.7819 64.8541 20.8753 64.7974C20.9686 64.7374 21.0419 64.6591 21.0953 64.5624C21.1486 64.4658 21.1753 64.3574 21.1753 64.2374C21.1753 64.1074 21.1453 63.9941 21.0853 63.8974C21.0286 63.8008 20.9469 63.7241 20.8403 63.6674C20.7369 63.6108 20.6153 63.5824 20.4753 63.5824C20.3053 63.5824 20.1553 63.6208 20.0253 63.6974C19.8953 63.7741 19.7919 63.8808 19.7153 64.0174L19.4603 63.8474C19.5636 63.6641 19.7003 63.5208 19.8703 63.4174C20.0436 63.3141 20.2503 63.2624 20.4903 63.2624C20.6936 63.2624 20.8703 63.3024 21.0203 63.3824C21.1736 63.4591 21.2936 63.5674 21.3803 63.7074C21.4703 63.8441 21.5153 64.0058 21.5153 64.1924C21.5153 64.3724 21.4703 64.5358 21.3803 64.6824C21.2936 64.8258 21.1669 64.9341 21.0003 65.0074C21.2103 65.0641 21.3719 65.1741 21.4853 65.3374C21.6019 65.5008 21.6603 65.6908 21.6603 65.9074C21.6603 66.1141 21.6103 66.2924 21.5103 66.4424C21.4103 66.5891 21.2719 66.7024 21.0953 66.7824C20.9219 66.8624 20.7203 66.9024 20.4903 66.9024ZM24.9949 65.9424C24.9949 66.1191 24.9499 66.2774 24.8599 66.4174C24.7699 66.5541 24.6482 66.6624 24.4949 66.7424C24.3449 66.8191 24.1799 66.8574 23.9999 66.8574H22.3249V63.3074H24.0349C24.2015 63.3074 24.3449 63.3524 24.4649 63.4424C24.5882 63.5291 24.6815 63.6424 24.7449 63.7824C24.8115 63.9191 24.8449 64.0624 24.8449 64.2124C24.8449 64.3891 24.7999 64.5524 24.7099 64.7024C24.6199 64.8524 24.4949 64.9641 24.3349 65.0374C24.5382 65.0974 24.6982 65.2091 24.8149 65.3724C24.9349 65.5358 24.9949 65.7258 24.9949 65.9424ZM24.6449 65.8824C24.6449 65.7624 24.6182 65.6524 24.5649 65.5524C24.5115 65.4491 24.4382 65.3658 24.3449 65.3024C24.2549 65.2391 24.1515 65.2074 24.0349 65.2074H22.6749V66.5524H23.9999C24.1199 66.5524 24.2282 66.5208 24.3249 66.4574C24.4215 66.3941 24.4982 66.3124 24.5549 66.2124C24.6149 66.1091 24.6449 65.9991 24.6449 65.8824ZM22.6749 63.6124V64.9224H23.8949C24.0115 64.9224 24.1149 64.8924 24.2049 64.8324C24.2949 64.7691 24.3665 64.6874 24.4199 64.5874C24.4732 64.4874 24.4999 64.3808 24.4999 64.2674C24.4999 64.1474 24.4749 64.0391 24.4249 63.9424C24.3749 63.8424 24.3065 63.7624 24.2199 63.7024C24.1332 63.6424 24.0349 63.6124 23.9249 63.6124H22.6749ZM27.085 66.8824C26.835 66.8824 26.6083 66.8324 26.405 66.7324C26.2016 66.6324 26.0266 66.4974 25.88 66.3274C25.7333 66.1541 25.62 65.9608 25.54 65.7474C25.46 65.5308 25.42 65.3091 25.42 65.0824C25.42 64.8458 25.4616 64.6208 25.545 64.4074C25.6283 64.1908 25.745 63.9991 25.895 63.8324C26.0483 63.6624 26.2266 63.5291 26.43 63.4324C26.6333 63.3324 26.8533 63.2824 27.09 63.2824C27.34 63.2824 27.5666 63.3341 27.77 63.4374C27.9733 63.5408 28.1466 63.6791 28.29 63.8524C28.4366 64.0258 28.55 64.2191 28.63 64.4324C28.71 64.6458 28.75 64.8641 28.75 65.0874C28.75 65.3241 28.7083 65.5508 28.625 65.7674C28.5416 65.9808 28.425 66.1724 28.275 66.3424C28.125 66.5091 27.9483 66.6408 27.745 66.7374C27.5416 66.8341 27.3216 66.8824 27.085 66.8824ZM25.77 65.0824C25.77 65.2758 25.8016 65.4624 25.865 65.6424C25.9283 65.8191 26.0183 65.9774 26.135 66.1174C26.2516 66.2541 26.39 66.3641 26.55 66.4474C26.7133 66.5274 26.8916 66.5674 27.085 66.5674C27.2883 66.5674 27.47 66.5258 27.63 66.4424C27.7933 66.3558 27.9316 66.2424 28.045 66.1024C28.1616 65.9591 28.25 65.7991 28.31 65.6224C28.37 65.4458 28.4 65.2658 28.4 65.0824C28.4 64.8891 28.3683 64.7041 28.305 64.5274C28.2416 64.3508 28.15 64.1924 28.03 64.0524C27.9133 63.9124 27.775 63.8024 27.615 63.7224C27.455 63.6424 27.2783 63.6024 27.085 63.6024C26.885 63.6024 26.7033 63.6441 26.54 63.7274C26.38 63.8108 26.2416 63.9241 26.125 64.0674C26.0116 64.2074 25.9233 64.3658 25.86 64.5424C25.8 64.7191 25.77 64.8991 25.77 65.0824ZM29.1548 67.5374V66.5474H29.3048C29.3982 66.5474 29.4798 66.5091 29.5498 66.4324C29.6232 66.3558 29.6848 66.2324 29.7348 66.0624C29.7882 65.8891 29.8298 65.6574 29.8598 65.3674C29.8932 65.0774 29.9165 64.7174 29.9298 64.2874L29.9548 63.3074H32.0798V66.5474H32.5048V67.5374H32.1948V66.8574H29.4648V67.5374H29.1548ZM29.8048 66.5474H31.7298V63.6174H30.2748L30.2548 64.3274C30.2448 64.7774 30.2215 65.1541 30.1848 65.4574C30.1515 65.7574 30.1032 65.9958 30.0398 66.1724C29.9765 66.3458 29.8982 66.4708 29.8048 66.5474ZM32.92 65.0574C32.92 64.8408 32.9566 64.6291 33.03 64.4224C33.1066 64.2124 33.2166 64.0224 33.36 63.8524C33.5033 63.6791 33.68 63.5424 33.89 63.4424C34.1 63.3391 34.3383 63.2874 34.605 63.2874C34.9216 63.2874 35.1916 63.3608 35.415 63.5074C35.6416 63.6508 35.8083 63.8358 35.915 64.0624L35.64 64.2324C35.5633 64.0758 35.4666 63.9524 35.35 63.8624C35.2333 63.7691 35.1083 63.7024 34.975 63.6624C34.845 63.6224 34.715 63.6024 34.585 63.6024C34.3716 63.6024 34.1833 63.6458 34.02 63.7324C33.8566 63.8158 33.7183 63.9291 33.605 64.0724C33.495 64.2124 33.4116 64.3708 33.355 64.5474C33.2983 64.7208 33.27 64.8974 33.27 65.0774C33.27 65.2741 33.3033 65.4624 33.37 65.6424C33.4366 65.8224 33.53 65.9824 33.65 66.1224C33.77 66.2591 33.91 66.3691 34.07 66.4524C34.2333 66.5324 34.41 66.5724 34.6 66.5724C34.7333 66.5724 34.87 66.5491 35.01 66.5024C35.15 66.4558 35.28 66.3841 35.4 66.2874C35.5233 66.1908 35.6216 66.0658 35.695 65.9124L35.985 66.0624C35.9116 66.2391 35.7983 66.3891 35.645 66.5124C35.4916 66.6358 35.32 66.7291 35.13 66.7924C34.9433 66.8558 34.76 66.8874 34.58 66.8874C34.3366 66.8874 34.1133 66.8358 33.91 66.7324C33.7066 66.6258 33.53 66.4858 33.38 66.3124C33.2333 66.1358 33.12 65.9391 33.04 65.7224C32.96 65.5024 32.92 65.2808 32.92 65.0574ZM39.0929 63.6174H37.8279V66.8574H37.4779V63.6174H36.2129V63.3074H39.0929V63.6174ZM42.2947 65.9424C42.2947 66.1191 42.2497 66.2774 42.1597 66.4174C42.0697 66.5541 41.948 66.6624 41.7947 66.7424C41.6447 66.8191 41.4797 66.8574 41.2997 66.8574H39.6247V63.3074H41.3347C41.5014 63.3074 41.6447 63.3524 41.7647 63.4424C41.888 63.5291 41.9814 63.6424 42.0447 63.7824C42.1114 63.9191 42.1447 64.0624 42.1447 64.2124C42.1447 64.3891 42.0997 64.5524 42.0097 64.7024C41.9197 64.8524 41.7947 64.9641 41.6347 65.0374C41.838 65.0974 41.998 65.2091 42.1147 65.3724C42.2347 65.5358 42.2947 65.7258 42.2947 65.9424ZM41.9447 65.8824C41.9447 65.7624 41.918 65.6524 41.8647 65.5524C41.8114 65.4491 41.738 65.3658 41.6447 65.3024C41.5547 65.2391 41.4514 65.2074 41.3347 65.2074H39.9747V66.5524H41.2997C41.4197 66.5524 41.528 66.5208 41.6247 66.4574C41.7214 66.3941 41.798 66.3124 41.8547 66.2124C41.9147 66.1091 41.9447 65.9991 41.9447 65.8824ZM39.9747 63.6124V64.9224H41.1947C41.3114 64.9224 41.4147 64.8924 41.5047 64.8324C41.5947 64.7691 41.6664 64.6874 41.7197 64.5874C41.773 64.4874 41.7997 64.3808 41.7997 64.2674C41.7997 64.1474 41.7747 64.0391 41.7247 63.9424C41.6747 63.8424 41.6064 63.7624 41.5197 63.7024C41.433 63.6424 41.3347 63.6124 41.2247 63.6124H39.9747ZM44.3848 66.8824C44.1348 66.8824 43.9081 66.8324 43.7048 66.7324C43.5014 66.6324 43.3264 66.4974 43.1798 66.3274C43.0331 66.1541 42.9198 65.9608 42.8398 65.7474C42.7598 65.5308 42.7198 65.3091 42.7198 65.0824C42.7198 64.8458 42.7614 64.6208 42.8448 64.4074C42.9281 64.1908 43.0448 63.9991 43.1948 63.8324C43.3481 63.6624 43.5264 63.5291 43.7298 63.4324C43.9331 63.3324 44.1531 63.2824 44.3898 63.2824C44.6398 63.2824 44.8664 63.3341 45.0698 63.4374C45.2731 63.5408 45.4464 63.6791 45.5898 63.8524C45.7364 64.0258 45.8498 64.2191 45.9298 64.4324C46.0098 64.6458 46.0498 64.8641 46.0498 65.0874C46.0498 65.3241 46.0081 65.5508 45.9248 65.7674C45.8414 65.9808 45.7248 66.1724 45.5748 66.3424C45.4248 66.5091 45.2481 66.6408 45.0448 66.7374C44.8414 66.8341 44.6214 66.8824 44.3848 66.8824ZM43.0698 65.0824C43.0698 65.2758 43.1014 65.4624 43.1648 65.6424C43.2281 65.8191 43.3181 65.9774 43.4348 66.1174C43.5514 66.2541 43.6898 66.3641 43.8498 66.4474C44.0131 66.5274 44.1914 66.5674 44.3848 66.5674C44.5881 66.5674 44.7698 66.5258 44.9298 66.4424C45.0931 66.3558 45.2314 66.2424 45.3448 66.1024C45.4614 65.9591 45.5498 65.7991 45.6098 65.6224C45.6698 65.4458 45.6998 65.2658 45.6998 65.0824C45.6998 64.8891 45.6681 64.7041 45.6048 64.5274C45.5414 64.3508 45.4498 64.1924 45.3298 64.0524C45.2131 63.9124 45.0748 63.8024 44.9148 63.7224C44.7548 63.6424 44.5781 63.6024 44.3848 63.6024C44.1848 63.6024 44.0031 63.6441 43.8398 63.7274C43.6798 63.8108 43.5414 63.9241 43.4248 64.0674C43.3114 64.2074 43.2231 64.3658 43.1598 64.5424C43.0998 64.7191 43.0698 64.8991 43.0698 65.0824ZM48.0041 66.8574V63.3074H48.3491V66.3774L50.5491 63.3074H50.8741V66.8574H50.5291V63.8424L48.3541 66.8574H48.0041ZM51.5479 65.0574C51.5479 64.8408 51.5846 64.6291 51.6579 64.4224C51.7346 64.2124 51.8446 64.0224 51.9879 63.8524C52.1312 63.6791 52.3079 63.5424 52.5179 63.4424C52.7279 63.3391 52.9662 63.2874 53.2329 63.2874C53.5496 63.2874 53.8196 63.3608 54.0429 63.5074C54.2696 63.6508 54.4362 63.8358 54.5429 64.0624L54.2679 64.2324C54.1912 64.0758 54.0946 63.9524 53.9779 63.8624C53.8612 63.7691 53.7362 63.7024 53.6029 63.6624C53.4729 63.6224 53.3429 63.6024 53.2129 63.6024C52.9996 63.6024 52.8112 63.6458 52.6479 63.7324C52.4846 63.8158 52.3462 63.9291 52.2329 64.0724C52.1229 64.2124 52.0396 64.3708 51.9829 64.5474C51.9262 64.7208 51.8979 64.8974 51.8979 65.0774C51.8979 65.2741 51.9312 65.4624 51.9979 65.6424C52.0646 65.8224 52.1579 65.9824 52.2779 66.1224C52.3979 66.2591 52.5379 66.3691 52.6979 66.4524C52.8612 66.5324 53.0379 66.5724 53.2279 66.5724C53.3612 66.5724 53.4979 66.5491 53.6379 66.5024C53.7779 66.4558 53.9079 66.3841 54.0279 66.2874C54.1512 66.1908 54.2496 66.0658 54.3229 65.9124L54.6129 66.0624C54.5396 66.2391 54.4262 66.3891 54.2729 66.5124C54.1196 66.6358 53.9479 66.7291 53.7579 66.7924C53.5712 66.8558 53.3879 66.8874 53.2079 66.8874C52.9646 66.8874 52.7412 66.8358 52.5379 66.7324C52.3346 66.6258 52.1579 66.4858 52.0079 66.3124C51.8612 66.1358 51.7479 65.9391 51.6679 65.7224C51.5879 65.5024 51.5479 65.2808 51.5479 65.0574ZM55.2106 66.8574V63.3074H55.5606V64.8874H56.0956L57.3156 63.3074H57.7206L56.3856 65.0274L57.8056 66.8574H57.3756L56.1056 65.2074H55.5606V66.8574H55.2106ZM58.7696 66.8674V66.5724H58.9946C59.0712 66.5724 59.1279 66.5508 59.1646 66.5074C59.2046 66.4641 59.2479 66.3991 59.2946 66.3124L59.4496 65.9874L57.9346 63.3074H58.3196L59.6096 65.6324L60.6846 63.3074H61.0496L59.5646 66.4824C59.4979 66.6191 59.4296 66.7174 59.3596 66.7774C59.2896 66.8374 59.1912 66.8674 59.0646 66.8674H58.7696ZM61.2256 65.0574C61.2256 64.8408 61.2623 64.6291 61.3356 64.4224C61.4123 64.2124 61.5223 64.0224 61.6656 63.8524C61.809 63.6791 61.9856 63.5424 62.1956 63.4424C62.4056 63.3391 62.644 63.2874 62.9106 63.2874C63.2273 63.2874 63.4973 63.3608 63.7206 63.5074C63.9473 63.6508 64.114 63.8358 64.2206 64.0624L63.9456 64.2324C63.869 64.0758 63.7723 63.9524 63.6556 63.8624C63.539 63.7691 63.414 63.7024 63.2806 63.6624C63.1506 63.6224 63.0206 63.6024 62.8906 63.6024C62.6773 63.6024 62.489 63.6458 62.3256 63.7324C62.1623 63.8158 62.024 63.9291 61.9106 64.0724C61.8006 64.2124 61.7173 64.3708 61.6606 64.5474C61.604 64.7208 61.5756 64.8974 61.5756 65.0774C61.5756 65.2741 61.609 65.4624 61.6756 65.6424C61.7423 65.8224 61.8356 65.9824 61.9556 66.1224C62.0756 66.2591 62.2156 66.3691 62.3756 66.4524C62.539 66.5324 62.7156 66.5724 62.9056 66.5724C63.039 66.5724 63.1756 66.5491 63.3156 66.5024C63.4556 66.4558 63.5856 66.3841 63.7056 66.2874C63.829 66.1908 63.9273 66.0658 64.0006 65.9124L64.2906 66.0624C64.2173 66.2391 64.104 66.3891 63.9506 66.5124C63.7973 66.6358 63.6256 66.7291 63.4356 66.7924C63.249 66.8558 63.0656 66.8874 62.8856 66.8874C62.6423 66.8874 62.419 66.8358 62.2156 66.7324C62.0123 66.6258 61.8356 66.4858 61.6856 66.3124C61.539 66.1358 61.4256 65.9391 61.3456 65.7224C61.2656 65.5024 61.2256 65.2808 61.2256 65.0574ZM64.6143 65.0574C64.6143 64.8408 64.651 64.6291 64.7243 64.4224C64.801 64.2124 64.911 64.0224 65.0543 63.8524C65.1976 63.6791 65.3743 63.5424 65.5843 63.4424C65.7943 63.3391 66.0326 63.2874 66.2993 63.2874C66.616 63.2874 66.886 63.3608 67.1093 63.5074C67.336 63.6508 67.5026 63.8358 67.6093 64.0624L67.3343 64.2324C67.2576 64.0758 67.161 63.9524 67.0443 63.8624C66.9276 63.7691 66.8026 63.7024 66.6693 63.6624C66.5393 63.6224 66.4093 63.6024 66.2793 63.6024C66.066 63.6024 65.8776 63.6458 65.7143 63.7324C65.551 63.8158 65.4126 63.9291 65.2993 64.0724C65.1893 64.2124 65.106 64.3708 65.0493 64.5474C64.9926 64.7208 64.9643 64.8974 64.9643 65.0774C64.9643 65.2741 64.9976 65.4624 65.0643 65.6424C65.131 65.8224 65.2243 65.9824 65.3443 66.1224C65.4643 66.2591 65.6043 66.3691 65.7643 66.4524C65.9276 66.5324 66.1043 66.5724 66.2943 66.5724C66.4276 66.5724 66.5643 66.5491 66.7043 66.5024C66.8443 66.4558 66.9743 66.3841 67.0943 66.2874C67.2176 66.1908 67.316 66.0658 67.3893 65.9124L67.6793 66.0624C67.606 66.2391 67.4926 66.3891 67.3393 66.5124C67.186 66.6358 67.0143 66.7291 66.8243 66.7924C66.6376 66.8558 66.4543 66.8874 66.2743 66.8874C66.031 66.8874 65.8076 66.8358 65.6043 66.7324C65.401 66.6258 65.2243 66.4858 65.0743 66.3124C64.9276 66.1358 64.8143 65.9391 64.7343 65.7224C64.6543 65.5024 64.6143 65.2808 64.6143 65.0574ZM70.7873 63.6174H69.5223V66.8574H69.1723V63.6174H67.9073V63.3074H70.7873V63.6174ZM73.989 65.9424C73.989 66.1191 73.944 66.2774 73.854 66.4174C73.764 66.5541 73.6424 66.6624 73.489 66.7424C73.339 66.8191 73.174 66.8574 72.994 66.8574H71.319V63.3074H73.029C73.1957 63.3074 73.339 63.3524 73.459 63.4424C73.5824 63.5291 73.6757 63.6424 73.739 63.7824C73.8057 63.9191 73.839 64.0624 73.839 64.2124C73.839 64.3891 73.794 64.5524 73.704 64.7024C73.614 64.8524 73.489 64.9641 73.329 65.0374C73.5324 65.0974 73.6924 65.2091 73.809 65.3724C73.929 65.5358 73.989 65.7258 73.989 65.9424ZM73.639 65.8824C73.639 65.7624 73.6124 65.6524 73.559 65.5524C73.5057 65.4491 73.4324 65.3658 73.339 65.3024C73.249 65.2391 73.1457 65.2074 73.029 65.2074H71.669V66.5524H72.994C73.114 66.5524 73.2224 66.5208 73.319 66.4574C73.4157 66.3941 73.4924 66.3124 73.549 66.2124C73.609 66.1091 73.639 65.9991 73.639 65.8824ZM71.669 63.6124V64.9224H72.889C73.0057 64.9224 73.109 64.8924 73.199 64.8324C73.289 64.7691 73.3607 64.6874 73.414 64.5874C73.4674 64.4874 73.494 64.3808 73.494 64.2674C73.494 64.1474 73.469 64.0391 73.419 63.9424C73.369 63.8424 73.3007 63.7624 73.214 63.7024C73.1274 63.6424 73.029 63.6124 72.919 63.6124H71.669ZM77.0341 66.5474V66.8574H74.6491V63.3074H76.9891V63.6174H74.9991V64.8974H76.7341V65.1924H74.9991V66.5474H77.0341ZM80.496 63.3074V66.8574H80.151V65.1974H78.046V66.8574H77.696V63.3074H78.046V64.8874H80.151V63.3074H80.496ZM84.1874 63.3074V66.8574H83.8424V65.1974H81.7374V66.8574H81.3874V63.3074H81.7374V64.8874H83.8424V63.3074H84.1874ZM86.5088 66.8824C86.2588 66.8824 86.0321 66.8324 85.8288 66.7324C85.6255 66.6324 85.4505 66.4974 85.3038 66.3274C85.1571 66.1541 85.0438 65.9608 84.9638 65.7474C84.8838 65.5308 84.8438 65.3091 84.8438 65.0824C84.8438 64.8458 84.8855 64.6208 84.9688 64.4074C85.0521 64.1908 85.1688 63.9991 85.3188 63.8324C85.4721 63.6624 85.6505 63.5291 85.8538 63.4324C86.0571 63.3324 86.2771 63.2824 86.5138 63.2824C86.7638 63.2824 86.9905 63.3341 87.1938 63.4374C87.3971 63.5408 87.5705 63.6791 87.7138 63.8524C87.8605 64.0258 87.9738 64.2191 88.0538 64.4324C88.1338 64.6458 88.1738 64.8641 88.1738 65.0874C88.1738 65.3241 88.1321 65.5508 88.0488 65.7674C87.9655 65.9808 87.8488 66.1724 87.6988 66.3424C87.5488 66.5091 87.3721 66.6408 87.1688 66.7374C86.9655 66.8341 86.7455 66.8824 86.5088 66.8824ZM85.1938 65.0824C85.1938 65.2758 85.2255 65.4624 85.2888 65.6424C85.3521 65.8191 85.4421 65.9774 85.5588 66.1174C85.6755 66.2541 85.8138 66.3641 85.9738 66.4474C86.1371 66.5274 86.3155 66.5674 86.5088 66.5674C86.7121 66.5674 86.8938 66.5258 87.0538 66.4424C87.2171 66.3558 87.3555 66.2424 87.4688 66.1024C87.5855 65.9591 87.6738 65.7991 87.7338 65.6224C87.7938 65.4458 87.8238 65.2658 87.8238 65.0824C87.8238 64.8891 87.7921 64.7041 87.7288 64.5274C87.6655 64.3508 87.5738 64.1924 87.4538 64.0524C87.3371 63.9124 87.1988 63.8024 87.0388 63.7224C86.8788 63.6424 86.7021 63.6024 86.5088 63.6024C86.3088 63.6024 86.1271 63.6441 85.9638 63.7274C85.8038 63.8108 85.6655 63.9241 85.5488 64.0674C85.4355 64.2074 85.3471 64.3658 85.2838 64.5424C85.2238 64.7191 85.1938 64.8991 85.1938 65.0824ZM88.8337 66.8574V63.3074H90.8487V63.6174H89.1837V66.8574H88.8337ZM92.8418 66.8824C92.5918 66.8824 92.3651 66.8324 92.1618 66.7324C91.9585 66.6324 91.7835 66.4974 91.6368 66.3274C91.4901 66.1541 91.3768 65.9608 91.2968 65.7474C91.2168 65.5308 91.1768 65.3091 91.1768 65.0824C91.1768 64.8458 91.2185 64.6208 91.3018 64.4074C91.3851 64.1908 91.5018 63.9991 91.6518 63.8324C91.8051 63.6624 91.9835 63.5291 92.1868 63.4324C92.3901 63.3324 92.6101 63.2824 92.8468 63.2824C93.0968 63.2824 93.3235 63.3341 93.5268 63.4374C93.7301 63.5408 93.9035 63.6791 94.0468 63.8524C94.1935 64.0258 94.3068 64.2191 94.3868 64.4324C94.4668 64.6458 94.5068 64.8641 94.5068 65.0874C94.5068 65.3241 94.4651 65.5508 94.3818 65.7674C94.2985 65.9808 94.1818 66.1724 94.0318 66.3424C93.8818 66.5091 93.7051 66.6408 93.5018 66.7374C93.2985 66.8341 93.0785 66.8824 92.8418 66.8824ZM91.5268 65.0824C91.5268 65.2758 91.5585 65.4624 91.6218 65.6424C91.6851 65.8191 91.7751 65.9774 91.8918 66.1174C92.0085 66.2541 92.1468 66.3641 92.3068 66.4474C92.4701 66.5274 92.6485 66.5674 92.8418 66.5674C93.0451 66.5674 93.2268 66.5258 93.3868 66.4424C93.5501 66.3558 93.6885 66.2424 93.8018 66.1024C93.9185 65.9591 94.0068 65.7991 94.0668 65.6224C94.1268 65.4458 94.1568 65.2658 94.1568 65.0824C94.1568 64.8891 94.1251 64.7041 94.0618 64.5274C93.9985 64.3508 93.9068 64.1924 93.7868 64.0524C93.6701 63.9124 93.5318 63.8024 93.3718 63.7224C93.2118 63.6424 93.0351 63.6024 92.8418 63.6024C92.6418 63.6024 92.4601 63.6441 92.2968 63.7274C92.1368 63.8108 91.9985 63.9241 91.8818 64.0674C91.7685 64.2074 91.6801 64.3658 91.6168 64.5424C91.5568 64.7191 91.5268 64.8991 91.5268 65.0824ZM97.7155 66.8574V63.3074H98.0655V64.8874H98.6005L99.8205 63.3074H100.226L98.8905 65.0274L100.311 66.8574H99.8805L98.6105 65.2074H98.0655V66.8574H97.7155ZM101.984 63.3074H102.279L103.754 66.8574H103.384L102.924 65.7474H101.329L100.874 66.8574H100.499L101.984 63.3074ZM102.844 65.4724L102.129 63.7174L101.404 65.4724H102.844ZM107.408 66.8574V63.9674L106.123 66.2124H105.903L104.613 63.9674V66.8574H104.263V63.3074H104.623L106.008 65.7374L107.403 63.3074H107.758V66.8574H107.408ZM111.448 63.3074V66.8574H111.103V65.1974H108.998V66.8574H108.648V63.3074H108.998V64.8874H111.103V63.3074H111.448ZM112.22 66.8574L113.17 65.3524C112.913 65.2924 112.715 65.1708 112.575 64.9874C112.438 64.8041 112.37 64.5858 112.37 64.3324C112.37 64.1424 112.416 63.9708 112.51 63.8174C112.606 63.6608 112.741 63.5374 112.915 63.4474C113.088 63.3541 113.295 63.3074 113.535 63.3074H114.635V66.8574H114.29V65.3974H113.655C113.635 65.3974 113.613 65.3974 113.59 65.3974C113.57 65.3974 113.55 65.3974 113.53 65.3974L112.62 66.8574H112.22ZM113.55 65.0924H114.29V63.6124H113.57C113.406 63.6124 113.26 63.6424 113.13 63.7024C113 63.7624 112.9 63.8458 112.83 63.9524C112.76 64.0591 112.725 64.1858 112.725 64.3324C112.725 64.4791 112.756 64.6091 112.82 64.7224C112.883 64.8358 112.975 64.9258 113.095 64.9924C113.218 65.0591 113.37 65.0924 113.55 65.0924Z" fill="#FDFDFD"/>
<g clip-path="url(#clip0_2056_2097)">
<path fill-rule="evenodd" clip-rule="evenodd" d="M57.9966 3.08899C57.9966 8.35759 55.6988 13.7201 49.6819 15.7853C47.7157 16.4306 45.797 16.6418 43.8663 16.6418C43.0017 16.6418 42.1844 16.6066 41.3672 16.5597V0.108536H47.6684V9.21418C50.4163 7.87649 51.1506 6.01077 51.1506 3.08899C51.1506 1.93905 50.9374 0.906453 50.5347 0.00292969H57.6887C57.89 1.02379 57.9848 2.05639 57.9848 3.08899H57.9966Z" fill="#FDFDFD"/>
<path fill-rule="evenodd" clip-rule="evenodd" d="M54.6802 33.9961C49.3621 33.9961 43.9492 31.7197 41.8646 25.7588C41.2132 23.8109 41 21.91 41 19.9974C41 19.1408 41.0355 18.3311 41.0829 17.5215H54.5973V23.764H48.4975C49.8477 26.4863 51.731 27.2138 54.6802 27.2138C55.8409 27.2138 56.8832 27.0026 57.7953 26.6037V33.691C56.7648 33.8905 55.7225 33.9844 54.6802 33.9844V33.9961Z" fill="#FDFDFD"/>
<path fill-rule="evenodd" clip-rule="evenodd" d="M72.8736 17.4395C67.5555 17.4395 62.1426 19.7159 60.058 25.6768C59.4066 27.6246 59.1934 29.5255 59.1934 31.4382C59.1934 32.2948 59.2289 33.1044 59.2763 33.9141H75.9294V27.6716H66.6908C68.0411 24.9493 69.9243 24.2217 72.8736 24.2217C74.0343 24.2217 75.0766 24.433 75.9886 24.8319V17.7445C74.9582 17.5451 73.9159 17.4512 72.8736 17.4512V17.4395Z" fill="#FDFDFD"/>
<path fill-rule="evenodd" clip-rule="evenodd" d="M72.8618 16.4776C67.5437 16.4776 62.1309 14.2012 60.0463 8.24025C59.3948 6.29239 59.1816 4.39147 59.1816 2.47882C59.1816 1.62223 59.2172 0.81258 59.2646 0.00292969H72.7789V6.24545H66.6791C68.0294 8.96776 69.9126 9.69527 72.8618 9.69527C74.0226 9.69527 75.0649 9.48406 75.9769 9.0851V16.1725C74.9464 16.372 73.9041 16.4658 72.8618 16.4658V16.4776Z" fill="#FDFDFD"/>
</g>
<defs>
<clipPath id="clip0_2056_2097">
<rect width="35" height="34" fill="white" transform="translate(41)"/>
</clipPath>
</defs>
</svg>
