<svg width="211" height="36" viewBox="0 0 211 36" fill="none" xmlns="http://www.w3.org/2000/svg">
<g clip-path="url(#clip0_2003_2313)">
<path fill-rule="evenodd" clip-rule="evenodd" d="M16.9966 4.08923C16.9966 9.35783 14.6988 14.7203 8.68191 16.7855C6.71575 17.4309 4.79697 17.6421 2.86634 17.6421C2.00171 17.6421 1.18445 17.6069 0.367188 17.5599V1.10878H6.66837V10.2144C9.41626 8.87674 10.1506 7.01102 10.1506 4.08923C10.1506 2.9393 9.93741 1.9067 9.5347 1.00317H16.6887C16.89 2.02404 16.9848 3.05664 16.9848 4.08923H16.9966Z" fill="#28292A"/>
<path fill-rule="evenodd" clip-rule="evenodd" d="M13.6802 34.9966C8.3621 34.9966 2.94924 32.7202 0.864636 26.7593C0.213198 24.8114 0 22.9105 0 20.9979C0 20.1413 0.035533 19.3316 0.0829103 18.522H13.5973V24.7645H7.49746C8.84772 27.4868 10.731 28.2143 13.6802 28.2143C14.8409 28.2143 15.8832 28.0031 16.7953 27.6041V34.6915C15.7648 34.891 14.7225 34.9849 13.6802 34.9849V34.9966Z" fill="#28292A"/>
<path fill-rule="evenodd" clip-rule="evenodd" d="M31.8736 18.4399C26.5555 18.4399 21.1426 20.7164 19.058 26.6773C18.4066 28.6251 18.1934 30.526 18.1934 32.4387C18.1934 33.2953 18.2289 34.1049 18.2763 34.9146H34.9294V28.6721H25.6908C27.0411 25.9497 28.9243 25.2222 31.8736 25.2222C33.0343 25.2222 34.0766 25.4334 34.9886 25.8324V18.745C33.9582 18.5455 32.9159 18.4517 31.8736 18.4517V18.4399Z" fill="#28292A"/>
<path fill-rule="evenodd" clip-rule="evenodd" d="M31.8618 17.4778C26.5437 17.4778 21.1309 15.2014 19.0463 9.24049C18.3948 7.29264 18.1816 5.39172 18.1816 3.47906C18.1816 2.62248 18.2172 1.81282 18.2646 1.00317H31.7789V7.2457H25.6791C27.0294 9.968 28.9126 10.6955 31.8618 10.6955C33.0226 10.6955 34.0649 10.4843 34.9769 10.0853V17.1727C33.9464 17.3722 32.9041 17.4661 31.8618 17.4661V17.4778Z" fill="#28292A"/>
</g>
<path d="M51.3886 3.2C52.9726 3.2 54.3966 3.44 55.6606 3.92C56.9246 4.4 57.9246 5.112 58.6606 6.056C59.4126 6.984 59.7886 8.12 59.7886 9.464H54.7246C54.7246 8.776 54.4206 8.224 53.8126 7.808C53.2046 7.376 52.4686 7.16 51.6046 7.16C50.3566 7.16 49.4126 7.496 48.7726 8.168C48.1326 8.824 47.8126 9.76 47.8126 10.976V12.512C47.8126 13.728 48.1326 14.672 48.7726 15.344C49.4126 16 50.3566 16.328 51.6046 16.328C52.4686 16.328 53.2046 16.128 53.8126 15.728C54.4206 15.312 54.7246 14.784 54.7246 14.144H50.9806V10.784H59.7886V20H57.0526L56.5246 18.368C55.0206 19.648 53.0526 20.288 50.6206 20.288C47.8846 20.288 45.8286 19.576 44.4526 18.152C43.0766 16.712 42.3886 14.576 42.3886 11.744C42.3886 8.944 43.1646 6.824 44.7166 5.384C46.2846 3.928 48.5086 3.2 51.3886 3.2ZM78.7488 8.552C78.7488 9.56 78.4768 10.472 77.9328 11.288C77.3888 12.104 76.5968 12.704 75.5568 13.088L79.2288 20H73.2768L70.3488 13.976H68.3808V20H63.0768V3.488H73.1808C74.3648 3.488 75.3728 3.72 76.2048 4.184C77.0528 4.632 77.6848 5.248 78.1008 6.032C78.5328 6.8 78.7488 7.64 78.7488 8.552ZM73.3488 8.768C73.3488 8.336 73.2048 7.976 72.9168 7.688C72.6288 7.4 72.2768 7.256 71.8608 7.256H68.3808V10.304H71.8608C72.2768 10.304 72.6288 10.16 72.9168 9.872C73.2048 9.568 73.3488 9.2 73.3488 8.768ZM89.566 3.2C92.414 3.2 94.614 3.928 96.166 5.384C97.718 6.84 98.494 8.96 98.494 11.744C98.494 14.528 97.718 16.648 96.166 18.104C94.614 19.56 92.414 20.288 89.566 20.288C86.718 20.288 84.518 19.568 82.966 18.128C81.43 16.672 80.662 14.544 80.662 11.744C80.662 8.944 81.43 6.824 82.966 5.384C84.518 3.928 86.718 3.2 89.566 3.2ZM89.566 7.16C88.43 7.16 87.566 7.504 86.974 8.192C86.382 8.88 86.086 9.808 86.086 10.976V12.512C86.086 13.68 86.382 14.608 86.974 15.296C87.566 15.984 88.43 16.328 89.566 16.328C90.702 16.328 91.566 15.984 92.158 15.296C92.766 14.608 93.07 13.68 93.07 12.512V10.976C93.07 9.808 92.766 8.88 92.158 8.192C91.566 7.504 90.702 7.16 89.566 7.16ZM108.286 3.2C110.398 3.2 112.134 3.632 113.494 4.496C114.854 5.344 115.55 6.608 115.582 8.288V8.576H110.614V8.48C110.614 8 110.438 7.6 110.086 7.28C109.734 6.96 109.198 6.8 108.478 6.8C107.774 6.8 107.23 6.904 106.846 7.112C106.478 7.32 106.294 7.576 106.294 7.88C106.294 8.312 106.55 8.632 107.062 8.84C107.574 9.048 108.398 9.264 109.534 9.488C110.862 9.76 111.95 10.048 112.798 10.352C113.662 10.64 114.414 11.12 115.054 11.792C115.694 12.464 116.022 13.376 116.038 14.528C116.038 16.48 115.374 17.928 114.046 18.872C112.734 19.816 110.974 20.288 108.766 20.288C106.19 20.288 104.182 19.856 102.742 18.992C101.318 18.128 100.606 16.6 100.606 14.408H105.622C105.622 15.24 105.838 15.8 106.27 16.088C106.702 16.36 107.374 16.496 108.286 16.496C108.958 16.496 109.51 16.424 109.942 16.28C110.39 16.136 110.614 15.84 110.614 15.392C110.614 14.992 110.366 14.696 109.87 14.504C109.39 14.296 108.598 14.08 107.494 13.856C106.15 13.568 105.038 13.272 104.158 12.968C103.278 12.648 102.51 12.128 101.854 11.408C101.198 10.688 100.87 9.712 100.87 8.48C100.87 6.672 101.566 5.344 102.958 4.496C104.366 3.632 106.142 3.2 108.286 3.2ZM125.607 3.2C127.719 3.2 129.455 3.632 130.815 4.496C132.175 5.344 132.871 6.608 132.903 8.288V8.576H127.935V8.48C127.935 8 127.759 7.6 127.407 7.28C127.055 6.96 126.519 6.8 125.799 6.8C125.095 6.8 124.551 6.904 124.167 7.112C123.799 7.32 123.615 7.576 123.615 7.88C123.615 8.312 123.871 8.632 124.383 8.84C124.895 9.048 125.719 9.264 126.855 9.488C128.183 9.76 129.271 10.048 130.119 10.352C130.983 10.64 131.735 11.12 132.375 11.792C133.015 12.464 133.343 13.376 133.359 14.528C133.359 16.48 132.695 17.928 131.367 18.872C130.055 19.816 128.295 20.288 126.087 20.288C123.511 20.288 121.503 19.856 120.063 18.992C118.639 18.128 117.927 16.6 117.927 14.408H122.943C122.943 15.24 123.159 15.8 123.591 16.088C124.023 16.36 124.695 16.496 125.607 16.496C126.279 16.496 126.831 16.424 127.263 16.28C127.711 16.136 127.935 15.84 127.935 15.392C127.935 14.992 127.687 14.696 127.191 14.504C126.711 14.296 125.919 14.08 124.815 13.856C123.471 13.568 122.359 13.272 121.479 12.968C120.599 12.648 119.831 12.128 119.175 11.408C118.519 10.688 118.191 9.712 118.191 8.48C118.191 6.672 118.887 5.344 120.279 4.496C121.687 3.632 123.463 3.2 125.607 3.2ZM145.495 7.712V20H140.191V7.712H134.767V3.488H150.895V7.712H145.495ZM160.699 3.2C163.547 3.2 165.747 3.928 167.299 5.384C168.851 6.84 169.627 8.96 169.627 11.744C169.627 14.528 168.851 16.648 167.299 18.104C165.747 19.56 163.547 20.288 160.699 20.288C157.851 20.288 155.651 19.568 154.099 18.128C152.563 16.672 151.795 14.544 151.795 11.744C151.795 8.944 152.563 6.824 154.099 5.384C155.651 3.928 157.851 3.2 160.699 3.2ZM160.699 7.16C159.563 7.16 158.699 7.504 158.107 8.192C157.515 8.88 157.219 9.808 157.219 10.976V12.512C157.219 13.68 157.515 14.608 158.107 15.296C158.699 15.984 159.563 16.328 160.699 16.328C161.835 16.328 162.699 15.984 163.291 15.296C163.899 14.608 164.203 13.68 164.203 12.512V10.976C164.203 9.808 163.899 8.88 163.291 8.192C162.699 7.504 161.835 7.16 160.699 7.16ZM188.923 13.352C188.923 15.608 188.211 17.328 186.787 18.512C185.363 19.696 183.339 20.288 180.715 20.288C178.091 20.288 176.059 19.696 174.619 18.512C173.195 17.328 172.483 15.608 172.483 13.352V3.488H177.787V13.28C177.787 14.208 178.035 14.952 178.531 15.512C179.027 16.056 179.747 16.328 180.691 16.328C181.635 16.328 182.355 16.048 182.851 15.488C183.363 14.928 183.619 14.192 183.619 13.28V3.488H188.923V13.352ZM204.283 20L197.347 11.984V20H192.475V3.488H197.107L204.043 11.624V3.488H208.915V20H204.283Z" fill="#28292A"/>
<path d="M49.1336 34V29.03H52.9696V34H52.3396V29.59H49.7636V34H49.1336ZM54.158 34V29.03H56.23C56.4493 29.03 56.65 29.0767 56.832 29.17C57.014 29.2587 57.1727 29.38 57.308 29.534C57.4433 29.6833 57.5483 29.8537 57.623 30.045C57.6977 30.2317 57.735 30.423 57.735 30.619C57.735 30.8897 57.6743 31.1487 57.553 31.396C57.4317 31.6387 57.2613 31.837 57.042 31.991C56.8227 32.1403 56.566 32.215 56.272 32.215H54.788V34H54.158ZM54.788 31.655H56.237C56.4097 31.655 56.559 31.6083 56.685 31.515C56.8157 31.4217 56.916 31.2957 56.986 31.137C57.0607 30.9783 57.098 30.8057 57.098 30.619C57.098 30.423 57.056 30.248 56.972 30.094C56.888 29.9353 56.7783 29.8117 56.643 29.723C56.5077 29.6343 56.3583 29.59 56.195 29.59H54.788V31.655ZM60.5353 34.035C60.1853 34.035 59.868 33.965 59.5833 33.825C59.2986 33.685 59.0513 33.496 58.8413 33.258C58.636 33.0153 58.4773 32.7447 58.3653 32.446C58.2533 32.1427 58.1973 31.8323 58.1973 31.515C58.1973 31.1837 58.2556 30.8687 58.3723 30.57C58.4936 30.2667 58.6593 29.9983 58.8693 29.765C59.084 29.527 59.3336 29.3403 59.6183 29.205C59.903 29.065 60.2133 28.995 60.5493 28.995C60.8993 28.995 61.2166 29.0673 61.5013 29.212C61.786 29.3567 62.031 29.5503 62.2363 29.793C62.4416 30.0357 62.6003 30.3063 62.7123 30.605C62.8243 30.9037 62.8803 31.2093 62.8803 31.522C62.8803 31.8533 62.822 32.1707 62.7053 32.474C62.5887 32.7727 62.423 33.041 62.2083 33.279C61.9983 33.5123 61.751 33.6967 61.4663 33.832C61.1816 33.9673 60.8713 34.035 60.5353 34.035ZM58.8343 31.515C58.8343 31.767 58.874 32.012 58.9533 32.25C59.0373 32.4833 59.154 32.691 59.3033 32.873C59.4526 33.055 59.6323 33.1997 59.8423 33.307C60.0523 33.4143 60.2856 33.468 60.5423 33.468C60.8083 33.468 61.0463 33.412 61.2563 33.3C61.4663 33.188 61.6436 33.0387 61.7883 32.852C61.9377 32.6653 62.0497 32.4553 62.1243 32.222C62.2036 31.9887 62.2433 31.753 62.2433 31.515C62.2433 31.263 62.2013 31.0203 62.1173 30.787C62.038 30.5537 61.9213 30.346 61.7673 30.164C61.618 29.9773 61.4383 29.8327 61.2283 29.73C61.023 29.6227 60.7943 29.569 60.5423 29.569C60.2763 29.569 60.0383 29.625 59.8283 29.737C59.6183 29.8443 59.4386 29.9913 59.2893 30.178C59.1446 30.3647 59.0326 30.5747 58.9533 30.808C58.874 31.0367 58.8343 31.2723 58.8343 31.515ZM63.7906 34V29.03H64.4206V33.125L67.2976 29.03H67.8856V34H67.2556V29.982L64.4136 34H63.7906ZM70.4732 34.056C70.1139 34.056 69.7895 33.9813 69.5002 33.832C69.2155 33.678 68.9915 33.4657 68.8282 33.195L69.3112 32.901C69.4279 33.097 69.5842 33.251 69.7802 33.363C69.9762 33.4703 70.2025 33.524 70.4592 33.524C70.7999 33.524 71.0635 33.44 71.2502 33.272C71.4415 33.104 71.5372 32.88 71.5372 32.6C71.5372 32.4227 71.4975 32.2663 71.4182 32.131C71.3389 31.991 71.2245 31.8837 71.0752 31.809C70.9259 31.7297 70.7439 31.69 70.5292 31.69H70.0182V31.193H70.5362C70.7042 31.193 70.8489 31.158 70.9702 31.088C71.0962 31.0133 71.1919 30.9153 71.2572 30.794C71.3272 30.668 71.3622 30.528 71.3622 30.374C71.3622 30.2107 71.3249 30.0683 71.2502 29.947C71.1755 29.821 71.0682 29.723 70.9282 29.653C70.7929 29.583 70.6295 29.548 70.4382 29.548C70.1955 29.548 69.9832 29.6017 69.8012 29.709C69.6192 29.8117 69.4769 29.954 69.3742 30.136L68.9122 29.821C69.0709 29.5597 69.2785 29.3543 69.5352 29.205C69.7919 29.051 70.1022 28.974 70.4662 28.974C70.7695 28.974 71.0332 29.0277 71.2572 29.135C71.4812 29.2423 71.6562 29.394 71.7822 29.59C71.9082 29.786 71.9712 30.0193 71.9712 30.29C71.9712 30.5327 71.9105 30.7567 71.7892 30.962C71.6725 31.1627 71.4975 31.3143 71.2642 31.417C71.5535 31.4963 71.7775 31.648 71.9362 31.872C72.0949 32.096 72.1742 32.3573 72.1742 32.656C72.1742 32.95 72.0995 33.202 71.9502 33.412C71.8055 33.622 71.6049 33.783 71.3482 33.895C71.0962 34.0023 70.8045 34.056 70.4732 34.056ZM76.8744 32.719C76.8744 32.9757 76.809 33.1997 76.6784 33.391C76.5477 33.5823 76.3704 33.7317 76.1464 33.839C75.927 33.9463 75.6844 34 75.4184 34H73.0594V29.03H75.5304C75.7637 29.03 75.9644 29.093 76.1324 29.219C76.305 29.3403 76.4357 29.499 76.5244 29.695C76.6177 29.8863 76.6644 30.087 76.6644 30.297C76.6644 30.5397 76.6014 30.7683 76.4754 30.983C76.354 31.193 76.179 31.3493 75.9504 31.452C76.235 31.536 76.459 31.6923 76.6224 31.921C76.7904 32.145 76.8744 32.411 76.8744 32.719ZM76.2374 32.607C76.2374 32.453 76.2024 32.3107 76.1324 32.18C76.067 32.0493 75.976 31.9443 75.8594 31.865C75.7474 31.7857 75.6167 31.746 75.4674 31.746H73.6894V33.454H75.4184C75.5724 33.454 75.71 33.4143 75.8314 33.335C75.9574 33.2557 76.0554 33.153 76.1254 33.027C76.2 32.8963 76.2374 32.7563 76.2374 32.607ZM73.6894 29.576V31.235H75.2714C75.4207 31.235 75.5514 31.1977 75.6634 31.123C75.78 31.0483 75.871 30.948 75.9364 30.822C76.0064 30.696 76.0414 30.5583 76.0414 30.409C76.0414 30.2503 76.0087 30.1103 75.9434 29.989C75.8827 29.863 75.7964 29.7627 75.6844 29.688C75.577 29.6133 75.4534 29.576 75.3134 29.576H73.6894ZM79.7716 34.035C79.4216 34.035 79.1043 33.965 78.8196 33.825C78.535 33.685 78.2876 33.496 78.0776 33.258C77.8723 33.0153 77.7136 32.7447 77.6016 32.446C77.4896 32.1427 77.4336 31.8323 77.4336 31.515C77.4336 31.1837 77.492 30.8687 77.6086 30.57C77.73 30.2667 77.8956 29.9983 78.1056 29.765C78.3203 29.527 78.57 29.3403 78.8546 29.205C79.1393 29.065 79.4496 28.995 79.7856 28.995C80.1356 28.995 80.453 29.0673 80.7376 29.212C81.0223 29.3567 81.2673 29.5503 81.4726 29.793C81.678 30.0357 81.8366 30.3063 81.9486 30.605C82.0606 30.9037 82.1166 31.2093 82.1166 31.522C82.1166 31.8533 82.0583 32.1707 81.9416 32.474C81.825 32.7727 81.6593 33.041 81.4446 33.279C81.2346 33.5123 80.9873 33.6967 80.7026 33.832C80.418 33.9673 80.1076 34.035 79.7716 34.035ZM78.0706 31.515C78.0706 31.767 78.1103 32.012 78.1896 32.25C78.2736 32.4833 78.3903 32.691 78.5396 32.873C78.689 33.055 78.8686 33.1997 79.0786 33.307C79.2886 33.4143 79.522 33.468 79.7786 33.468C80.0446 33.468 80.2826 33.412 80.4926 33.3C80.7026 33.188 80.88 33.0387 81.0246 32.852C81.174 32.6653 81.286 32.4553 81.3606 32.222C81.44 31.9887 81.4796 31.753 81.4796 31.515C81.4796 31.263 81.4376 31.0203 81.3536 30.787C81.2743 30.5537 81.1576 30.346 81.0036 30.164C80.8543 29.9773 80.6746 29.8327 80.4646 29.73C80.2593 29.6227 80.0306 29.569 79.7786 29.569C79.5126 29.569 79.2746 29.625 79.0646 29.737C78.8546 29.8443 78.675 29.9913 78.5256 30.178C78.381 30.3647 78.269 30.5747 78.1896 30.808C78.1103 31.0367 78.0706 31.2723 78.0706 31.515ZM82.642 34.952V33.44H82.866C82.9966 33.44 83.111 33.3887 83.209 33.286C83.307 33.1787 83.391 33.0107 83.461 32.782C83.531 32.5487 83.587 32.2383 83.629 31.851C83.671 31.4637 83.7013 30.9853 83.72 30.416L83.755 29.03H86.835V33.44H87.451V34.952H86.891V34H83.202V34.952H82.642ZM83.706 33.44H86.205V29.59H84.336L84.315 30.493C84.301 31.081 84.2706 31.5733 84.224 31.97C84.1773 32.3667 84.112 32.684 84.028 32.922C83.944 33.16 83.8366 33.3327 83.706 33.44ZM87.9678 31.48C87.9678 31.1767 88.0192 30.8803 88.1218 30.591C88.2292 30.297 88.3832 30.031 88.5838 29.793C88.7892 29.5503 89.0388 29.359 89.3328 29.219C89.6268 29.0743 89.9605 29.002 90.3338 29.002C90.7772 29.002 91.1575 29.1047 91.4748 29.31C91.7922 29.5107 92.0278 29.7697 92.1818 30.087L91.6848 30.409C91.5868 30.199 91.4608 30.0333 91.3068 29.912C91.1575 29.786 90.9942 29.6973 90.8168 29.646C90.6442 29.5947 90.4738 29.569 90.3058 29.569C90.0305 29.569 89.7855 29.625 89.5708 29.737C89.3608 29.849 89.1835 29.9983 89.0388 30.185C88.8942 30.3717 88.7845 30.5817 88.7098 30.815C88.6398 31.0437 88.6048 31.2747 88.6048 31.508C88.6048 31.7647 88.6468 32.012 88.7308 32.25C88.8195 32.488 88.9408 32.698 89.0948 32.88C89.2488 33.062 89.4308 33.2067 89.6408 33.314C89.8508 33.4213 90.0795 33.475 90.3268 33.475C90.4995 33.475 90.6768 33.4447 90.8588 33.384C91.0408 33.3233 91.2112 33.23 91.3698 33.104C91.5285 32.9733 91.6545 32.8053 91.7478 32.6L92.2728 32.887C92.1702 33.1343 92.0115 33.3443 91.7968 33.517C91.5822 33.6897 91.3418 33.8203 91.0758 33.909C90.8145 33.9977 90.5555 34.042 90.2988 34.042C89.9582 34.042 89.6455 33.9697 89.3608 33.825C89.0762 33.6757 88.8288 33.4797 88.6188 33.237C88.4135 32.9897 88.2525 32.7143 88.1358 32.411C88.0238 32.103 87.9678 31.7927 87.9678 31.48ZM96.6453 29.59H94.9303V34H94.3003V29.59H92.5853V29.03H96.6453V29.59ZM101.176 32.719C101.176 32.9757 101.111 33.1997 100.98 33.391C100.849 33.5823 100.672 33.7317 100.448 33.839C100.229 33.9463 99.9861 34 99.7201 34H97.3611V29.03H99.8321C100.065 29.03 100.266 29.093 100.434 29.219C100.607 29.3403 100.737 29.499 100.826 29.695C100.919 29.8863 100.966 30.087 100.966 30.297C100.966 30.5397 100.903 30.7683 100.777 30.983C100.656 31.193 100.481 31.3493 100.252 31.452C100.537 31.536 100.761 31.6923 100.924 31.921C101.092 32.145 101.176 32.411 101.176 32.719ZM100.539 32.607C100.539 32.453 100.504 32.3107 100.434 32.18C100.369 32.0493 100.278 31.9443 100.161 31.865C100.049 31.7857 99.9184 31.746 99.7691 31.746H97.9911V33.454H99.7201C99.8741 33.454 100.012 33.4143 100.133 33.335C100.259 33.2557 100.357 33.153 100.427 33.027C100.502 32.8963 100.539 32.7563 100.539 32.607ZM97.9911 29.576V31.235H99.5731C99.7224 31.235 99.8531 31.1977 99.9651 31.123C100.082 31.0483 100.173 30.948 100.238 30.822C100.308 30.696 100.343 30.5583 100.343 30.409C100.343 30.2503 100.31 30.1103 100.245 29.989C100.184 29.863 100.098 29.7627 99.9861 29.688C99.8788 29.6133 99.7551 29.576 99.6151 29.576H97.9911ZM104.073 34.035C103.723 34.035 103.406 33.965 103.121 33.825C102.837 33.685 102.589 33.496 102.379 33.258C102.174 33.0153 102.015 32.7447 101.903 32.446C101.791 32.1427 101.735 31.8323 101.735 31.515C101.735 31.1837 101.794 30.8687 101.91 30.57C102.032 30.2667 102.197 29.9983 102.407 29.765C102.622 29.527 102.872 29.3403 103.156 29.205C103.441 29.065 103.751 28.995 104.087 28.995C104.437 28.995 104.755 29.0673 105.039 29.212C105.324 29.3567 105.569 29.5503 105.774 29.793C105.98 30.0357 106.138 30.3063 106.25 30.605C106.362 30.9037 106.418 31.2093 106.418 31.522C106.418 31.8533 106.36 32.1707 106.243 32.474C106.127 32.7727 105.961 33.041 105.746 33.279C105.536 33.5123 105.289 33.6967 105.004 33.832C104.72 33.9673 104.409 34.035 104.073 34.035ZM102.372 31.515C102.372 31.767 102.412 32.012 102.491 32.25C102.575 32.4833 102.692 32.691 102.841 32.873C102.991 33.055 103.17 33.1997 103.38 33.307C103.59 33.4143 103.824 33.468 104.08 33.468C104.346 33.468 104.584 33.412 104.794 33.3C105.004 33.188 105.182 33.0387 105.326 32.852C105.476 32.6653 105.588 32.4553 105.662 32.222C105.742 31.9887 105.781 31.753 105.781 31.515C105.781 31.263 105.739 31.0203 105.655 30.787C105.576 30.5537 105.459 30.346 105.305 30.164C105.156 29.9773 104.976 29.8327 104.766 29.73C104.561 29.6227 104.332 29.569 104.08 29.569C103.814 29.569 103.576 29.625 103.366 29.737C103.156 29.8443 102.977 29.9913 102.827 30.178C102.683 30.3647 102.571 30.5747 102.491 30.808C102.412 31.0367 102.372 31.2723 102.372 31.515ZM109.099 34V29.03H109.729V33.125L112.606 29.03H113.194V34H112.564V29.982L109.722 34H109.099ZM114.095 31.48C114.095 31.1767 114.146 30.8803 114.249 30.591C114.356 30.297 114.51 30.031 114.711 29.793C114.916 29.5503 115.166 29.359 115.46 29.219C115.754 29.0743 116.087 29.002 116.461 29.002C116.904 29.002 117.284 29.1047 117.602 29.31C117.919 29.5107 118.155 29.7697 118.309 30.087L117.812 30.409C117.714 30.199 117.588 30.0333 117.434 29.912C117.284 29.786 117.121 29.6973 116.944 29.646C116.771 29.5947 116.601 29.569 116.433 29.569C116.157 29.569 115.912 29.625 115.698 29.737C115.488 29.849 115.31 29.9983 115.166 30.185C115.021 30.3717 114.911 30.5817 114.837 30.815C114.767 31.0437 114.732 31.2747 114.732 31.508C114.732 31.7647 114.774 32.012 114.858 32.25C114.946 32.488 115.068 32.698 115.222 32.88C115.376 33.062 115.558 33.2067 115.768 33.314C115.978 33.4213 116.206 33.475 116.454 33.475C116.626 33.475 116.804 33.4447 116.986 33.384C117.168 33.3233 117.338 33.23 117.497 33.104C117.655 32.9733 117.781 32.8053 117.875 32.6L118.4 32.887C118.297 33.1343 118.138 33.3443 117.924 33.517C117.709 33.6897 117.469 33.8203 117.203 33.909C116.941 33.9977 116.682 34.042 116.426 34.042C116.085 34.042 115.772 33.9697 115.488 33.825C115.203 33.6757 114.956 33.4797 114.746 33.237C114.54 32.9897 114.379 32.7143 114.263 32.411C114.151 32.103 114.095 31.7927 114.095 31.48ZM119.188 34V29.03H119.818V31.179H120.483L122.121 29.03H122.849L121.001 31.438L122.975 34H122.205L120.497 31.753H119.818V34H119.188ZM124.28 34.021V33.489H124.595C124.711 33.489 124.798 33.461 124.854 33.405C124.914 33.3443 124.977 33.2557 125.043 33.139L125.225 32.747L123.153 29.03H123.846L125.512 32.103L126.912 29.03H127.577L125.526 33.44C125.423 33.65 125.313 33.7993 125.197 33.888C125.085 33.9767 124.928 34.021 124.728 34.021H124.28ZM127.78 31.48C127.78 31.1767 127.832 30.8803 127.934 30.591C128.042 30.297 128.196 30.031 128.396 29.793C128.602 29.5503 128.851 29.359 129.145 29.219C129.439 29.0743 129.773 29.002 130.146 29.002C130.59 29.002 130.97 29.1047 131.287 29.31C131.605 29.5107 131.84 29.7697 131.994 30.087L131.497 30.409C131.399 30.199 131.273 30.0333 131.119 29.912C130.97 29.786 130.807 29.6973 130.629 29.646C130.457 29.5947 130.286 29.569 130.118 29.569C129.843 29.569 129.598 29.625 129.383 29.737C129.173 29.849 128.996 29.9983 128.851 30.185C128.707 30.3717 128.597 30.5817 128.522 30.815C128.452 31.0437 128.417 31.2747 128.417 31.508C128.417 31.7647 128.459 32.012 128.543 32.25C128.632 32.488 128.753 32.698 128.907 32.88C129.061 33.062 129.243 33.2067 129.453 33.314C129.663 33.4213 129.892 33.475 130.139 33.475C130.312 33.475 130.489 33.4447 130.671 33.384C130.853 33.3233 131.024 33.23 131.182 33.104C131.341 32.9733 131.467 32.8053 131.56 32.6L132.085 32.887C131.983 33.1343 131.824 33.3443 131.609 33.517C131.395 33.6897 131.154 33.8203 130.888 33.909C130.627 33.9977 130.368 34.042 130.111 34.042C129.771 34.042 129.458 33.9697 129.173 33.825C128.889 33.6757 128.641 33.4797 128.431 33.237C128.226 32.9897 128.065 32.7143 127.948 32.411C127.836 32.103 127.78 31.7927 127.78 31.48ZM132.497 31.48C132.497 31.1767 132.548 30.8803 132.651 30.591C132.758 30.297 132.912 30.031 133.113 29.793C133.318 29.5503 133.568 29.359 133.862 29.219C134.156 29.0743 134.49 29.002 134.863 29.002C135.306 29.002 135.687 29.1047 136.004 29.31C136.321 29.5107 136.557 29.7697 136.711 30.087L136.214 30.409C136.116 30.199 135.99 30.0333 135.836 29.912C135.687 29.786 135.523 29.6973 135.346 29.646C135.173 29.5947 135.003 29.569 134.835 29.569C134.56 29.569 134.315 29.625 134.1 29.737C133.89 29.849 133.713 29.9983 133.568 30.185C133.423 30.3717 133.314 30.5817 133.239 30.815C133.169 31.0437 133.134 31.2747 133.134 31.508C133.134 31.7647 133.176 32.012 133.26 32.25C133.349 32.488 133.47 32.698 133.624 32.88C133.778 33.062 133.96 33.2067 134.17 33.314C134.38 33.4213 134.609 33.475 134.856 33.475C135.029 33.475 135.206 33.4447 135.388 33.384C135.57 33.3233 135.74 33.23 135.899 33.104C136.058 32.9733 136.184 32.8053 136.277 32.6L136.802 32.887C136.699 33.1343 136.541 33.3443 136.326 33.517C136.111 33.6897 135.871 33.8203 135.605 33.909C135.344 33.9977 135.085 34.042 134.828 34.042C134.487 34.042 134.175 33.9697 133.89 33.825C133.605 33.6757 133.358 33.4797 133.148 33.237C132.943 32.9897 132.782 32.7143 132.665 32.411C132.553 32.103 132.497 31.7927 132.497 31.48ZM141.175 29.59H139.46V34H138.83V29.59H137.115V29.03H141.175V29.59ZM145.705 32.719C145.705 32.9757 145.64 33.1997 145.509 33.391C145.379 33.5823 145.201 33.7317 144.977 33.839C144.758 33.9463 144.515 34 144.249 34H141.89V29.03H144.361C144.595 29.03 144.795 29.093 144.963 29.219C145.136 29.3403 145.267 29.499 145.355 29.695C145.449 29.8863 145.495 30.087 145.495 30.297C145.495 30.5397 145.432 30.7683 145.306 30.983C145.185 31.193 145.01 31.3493 144.781 31.452C145.066 31.536 145.29 31.6923 145.453 31.921C145.621 32.145 145.705 32.411 145.705 32.719ZM145.068 32.607C145.068 32.453 145.033 32.3107 144.963 32.18C144.898 32.0493 144.807 31.9443 144.69 31.865C144.578 31.7857 144.448 31.746 144.298 31.746H142.52V33.454H144.249C144.403 33.454 144.541 33.4143 144.662 33.335C144.788 33.2557 144.886 33.153 144.956 33.027C145.031 32.8963 145.068 32.7563 145.068 32.607ZM142.52 29.576V31.235H144.102C144.252 31.235 144.382 31.1977 144.494 31.123C144.611 31.0483 144.702 30.948 144.767 30.822C144.837 30.696 144.872 30.5583 144.872 30.409C144.872 30.2503 144.84 30.1103 144.774 29.989C144.714 29.863 144.627 29.7627 144.515 29.688C144.408 29.6133 144.284 29.576 144.144 29.576H142.52ZM149.961 33.44V34H146.587V29.03H149.898V29.59H147.217V31.2H149.548V31.725H147.217V33.44H149.961ZM154.822 29.03V34H154.192V31.739H151.455V34H150.825V29.03H151.455V31.179H154.192V29.03H154.822ZM160.01 29.03V34H159.38V31.739H156.643V34H156.013V29.03H156.643V31.179H159.38V29.03H160.01ZM163.218 34.035C162.868 34.035 162.551 33.965 162.266 33.825C161.981 33.685 161.734 33.496 161.524 33.258C161.319 33.0153 161.16 32.7447 161.048 32.446C160.936 32.1427 160.88 31.8323 160.88 31.515C160.88 31.1837 160.938 30.8687 161.055 30.57C161.176 30.2667 161.342 29.9983 161.552 29.765C161.767 29.527 162.016 29.3403 162.301 29.205C162.586 29.065 162.896 28.995 163.232 28.995C163.582 28.995 163.899 29.0673 164.184 29.212C164.469 29.3567 164.714 29.5503 164.919 29.793C165.124 30.0357 165.283 30.3063 165.395 30.605C165.507 30.9037 165.563 31.2093 165.563 31.522C165.563 31.8533 165.505 32.1707 165.388 32.474C165.271 32.7727 165.106 33.041 164.891 33.279C164.681 33.5123 164.434 33.6967 164.149 33.832C163.864 33.9673 163.554 34.035 163.218 34.035ZM161.517 31.515C161.517 31.767 161.557 32.012 161.636 32.25C161.72 32.4833 161.837 32.691 161.986 32.873C162.135 33.055 162.315 33.1997 162.525 33.307C162.735 33.4143 162.968 33.468 163.225 33.468C163.491 33.468 163.729 33.412 163.939 33.3C164.149 33.188 164.326 33.0387 164.471 32.852C164.62 32.6653 164.732 32.4553 164.807 32.222C164.886 31.9887 164.926 31.753 164.926 31.515C164.926 31.263 164.884 31.0203 164.8 30.787C164.721 30.5537 164.604 30.346 164.45 30.164C164.301 29.9773 164.121 29.8327 163.911 29.73C163.706 29.6227 163.477 29.569 163.225 29.569C162.959 29.569 162.721 29.625 162.511 29.737C162.301 29.8443 162.121 29.9913 161.972 30.178C161.827 30.3647 161.715 30.5747 161.636 30.808C161.557 31.0367 161.517 31.2723 161.517 31.515ZM166.438 34V29.03H169.329V29.59H167.068V34H166.438ZM172.118 34.035C171.768 34.035 171.451 33.965 171.166 33.825C170.882 33.685 170.634 33.496 170.424 33.258C170.219 33.0153 170.06 32.7447 169.948 32.446C169.836 32.1427 169.78 31.8323 169.78 31.515C169.78 31.1837 169.839 30.8687 169.955 30.57C170.077 30.2667 170.242 29.9983 170.452 29.765C170.667 29.527 170.917 29.3403 171.201 29.205C171.486 29.065 171.796 28.995 172.132 28.995C172.482 28.995 172.8 29.0673 173.084 29.212C173.369 29.3567 173.614 29.5503 173.819 29.793C174.025 30.0357 174.183 30.3063 174.295 30.605C174.407 30.9037 174.463 31.2093 174.463 31.522C174.463 31.8533 174.405 32.1707 174.288 32.474C174.172 32.7727 174.006 33.041 173.791 33.279C173.581 33.5123 173.334 33.6967 173.049 33.832C172.765 33.9673 172.454 34.035 172.118 34.035ZM170.417 31.515C170.417 31.767 170.457 32.012 170.536 32.25C170.62 32.4833 170.737 32.691 170.886 32.873C171.036 33.055 171.215 33.1997 171.425 33.307C171.635 33.4143 171.869 33.468 172.125 33.468C172.391 33.468 172.629 33.412 172.839 33.3C173.049 33.188 173.227 33.0387 173.371 32.852C173.521 32.6653 173.633 32.4553 173.707 32.222C173.787 31.9887 173.826 31.753 173.826 31.515C173.826 31.263 173.784 31.0203 173.7 30.787C173.621 30.5537 173.504 30.346 173.35 30.164C173.201 29.9773 173.021 29.8327 172.811 29.73C172.606 29.6227 172.377 29.569 172.125 29.569C171.859 29.569 171.621 29.625 171.411 29.737C171.201 29.8443 171.022 29.9913 170.872 30.178C170.728 30.3647 170.616 30.5747 170.536 30.808C170.457 31.0367 170.417 31.2723 170.417 31.515ZM178.88 34V29.03H179.51V31.179H180.175L181.813 29.03H182.541L180.693 31.438L182.667 34H181.897L180.189 31.753H179.51V34H178.88ZM184.951 29.03H185.483L187.513 34H186.841L186.253 32.544H184.167L183.586 34H182.914L184.951 29.03ZM186.113 32.054L185.217 29.758L184.293 32.054H186.113ZM192.475 34V30.206L190.837 33.125H190.452L188.807 30.206V34H188.177V29.03H188.842L190.641 32.257L192.447 29.03H193.105V34H192.475ZM198.292 29.03V34H197.662V31.739H194.925V34H194.295V29.03H194.925V31.179H197.662V29.03H198.292ZM199.343 34L200.638 31.928C200.298 31.8393 200.032 31.6667 199.84 31.41C199.654 31.1533 199.56 30.8477 199.56 30.493C199.56 30.2177 199.628 29.9703 199.763 29.751C199.899 29.5317 200.088 29.3567 200.33 29.226C200.578 29.0953 200.867 29.03 201.198 29.03H202.864V34H202.234V32.005H201.464C201.436 32.005 201.406 32.005 201.373 32.005C201.345 32.005 201.317 32.005 201.289 32.005L200.071 34H199.343ZM201.247 31.459H202.234V29.576H201.275C201.07 29.576 200.886 29.6133 200.722 29.688C200.559 29.7627 200.431 29.8677 200.337 30.003C200.249 30.1383 200.204 30.3017 200.204 30.493C200.204 30.6843 200.244 30.8523 200.323 30.997C200.407 31.1417 200.526 31.256 200.68 31.34C200.839 31.4193 201.028 31.459 201.247 31.459Z" fill="#28292A"/>
<defs>
<clipPath id="clip0_2003_2313">
<rect width="35" height="34" fill="white" transform="translate(0 1)"/>
</clipPath>
</defs>
</svg>
