<svg width="24" height="24" viewBox="0 0 24 24" fill="none" xmlns="http://www.w3.org/2000/svg">
<g clip-path="url(#clip0_2116_2129)">
<path d="M3.66406 14.0218C3.66406 18.3104 6.88667 21.8442 11.0364 22.322C11.6487 22.3925 12.2422 22.1314 12.6781 21.6945C13.2226 21.1485 13.2226 20.2633 12.6781 19.7174C12.2422 19.2804 11.8869 18.6285 12.2156 18.1058C13.5295 16.0161 20.3307 20.8151 20.3307 14.0218C20.3307 9.40745 16.5998 5.66675 11.9974 5.66675C7.39502 5.66675 3.66406 9.40745 3.66406 14.0218Z" stroke="#28292A" stroke-opacity="0.85" stroke-width="1.5"/>
<circle cx="16.5859" cy="13.5" r="0.75" stroke="#28292A" stroke-opacity="0.85"/>
<circle cx="7.41406" cy="13.5" r="0.75" stroke="#28292A" stroke-opacity="0.85"/>
<path d="M9.98828 8.49976C10.2644 8.49976 10.4883 8.72361 10.4883 8.99976C10.4883 9.2759 10.2644 9.49976 9.98828 9.49976C9.71214 9.49976 9.48828 9.2759 9.48828 8.99976C9.48828 8.72361 9.71214 8.49976 9.98828 8.49976Z" stroke="#28292A" stroke-opacity="0.85" stroke-width="1.5"/>
<path d="M14.0859 8.5C14.3621 8.5 14.5859 8.72386 14.5859 9C14.5859 9.27614 14.3621 9.5 14.0859 9.5C13.8098 9.5 13.5859 9.27614 13.5859 9C13.5859 8.72386 13.8098 8.5 14.0859 8.5Z" stroke="#28292A" stroke-opacity="0.85" stroke-width="1.5"/>
</g>
<defs>
<clipPath id="clip0_2116_2129">
<rect x="2" y="4" width="20" height="20" rx="5" fill="white"/>
</clipPath>
</defs>
</svg>
