<svg width="18" height="19" viewBox="0 0 18 19" fill="none" xmlns="http://www.w3.org/2000/svg">
<path d="M1 9.3335V5.29329C1 4.58727 1 4.23426 1.05548 3.9402C1.29971 2.64574 2.31225 1.63321 3.60671 1.38898C3.90076 1.3335 4.25377 1.3335 4.9598 1.3335C5.26914 1.3335 5.42381 1.3335 5.57246 1.3474C6.21332 1.40733 6.82122 1.65912 7.31675 2.06991C7.43169 2.16519 7.54106 2.27456 7.7598 2.49329L8.2 2.9335C8.85262 3.58612 9.17894 3.91243 9.56969 4.12984C9.78435 4.24926 10.012 4.34358 10.2483 4.41092C10.6783 4.5335 11.1398 4.5335 12.0627 4.5335H12.3617C14.4676 4.5335 15.5205 4.5335 16.2049 5.14907C16.2679 5.20569 16.3278 5.26561 16.3844 5.32856C17 6.01298 17 7.06592 17 9.17182V10.9335C17 13.9505 17 15.459 16.0627 16.3962C15.1255 17.3335 13.617 17.3335 10.6 17.3335H7.4C4.38301 17.3335 2.87452 17.3335 1.93726 16.3962C1.41471 15.8737 1.1835 15.1736 1.08119 14.1335" stroke="#28292A" stroke-width="1.5" stroke-linecap="round"/>
<path d="M1 13.3331C6.15492 13.3331 4.64508 13.3331 9.8 13.3331M9.8 13.3331L6.5 10.9331M9.8 13.3331L6.5 15.7331" stroke="#28292A" stroke-width="1.5" stroke-linecap="round" stroke-linejoin="round"/>
</svg>
