<svg width="24" height="26" viewBox="0 0 24 26" fill="none" xmlns="http://www.w3.org/2000/svg">
<path d="M17.1797 20C19.5797 20 20.1797 18.65 20.1797 17V11C20.1797 9.35 19.5797 8 17.1797 8C14.7797 8 14.1797 9.35 14.1797 11V17C14.1797 18.65 14.7797 20 17.1797 20Z" stroke="#28292A" stroke-opacity="0.85" stroke-width="1.5" stroke-linecap="round" stroke-linejoin="round"/>
<path d="M6.82031 20C4.42031 20 3.82031 18.65 3.82031 17V11C3.82031 9.35 4.42031 8 6.82031 8C9.22031 8 9.82031 9.35 9.82031 11V17C9.82031 18.65 9.22031 20 6.82031 20Z" stroke="#28292A" stroke-opacity="0.85" stroke-width="1.5" stroke-linecap="round" stroke-linejoin="round"/>
<path d="M9.82031 14H14.1803" stroke="#28292A" stroke-opacity="0.85" stroke-width="1.5" stroke-linecap="round" stroke-linejoin="round"/>
<path d="M22.5 16.5V11.5" stroke="#28292A" stroke-opacity="0.85" stroke-width="1.5" stroke-linecap="round" stroke-linejoin="round"/>
<path d="M1.5 16.5V11.5" stroke="#28292A" stroke-opacity="0.85" stroke-width="1.5" stroke-linecap="round" stroke-linejoin="round"/>
</svg>
