<svg width="20" height="20" viewBox="0 0 20 20" fill="none" xmlns="http://www.w3.org/2000/svg">
<path d="M0 10C0 15.5228 4.47715 20 10 20C15.5228 20 20 15.5228 20 10C20 4.47715 15.5228 0 10 0C4.47715 0 0 4.47715 0 10Z" fill="#25D366"/>
<path fill-rule="evenodd" clip-rule="evenodd" d="M13.5 6.4375C12.5625 5.5 11.3125 5 10 5C7.25 5 5 7.25 5 10C5 10.875 5.25 11.75 5.6875 12.5L5 15L7.62501 14.3125C8.37501 14.6875 9.1875 14.9375 10 14.9375C12.75 14.9375 15 12.6875 15 9.9375C15 8.625 14.4375 7.375 13.5 6.4375ZM10 14.125C9.25 14.125 8.5 13.9375 7.875 13.5625L7.75 13.5L6.1875 13.9375L6.625 12.4375L6.5 12.25C6.0625 11.5625 5.875 10.8125 5.875 10.0625C5.875 7.8125 7.75 5.9375 10 5.9375C11.125 5.9375 12.125 6.375 12.9375 7.125C13.75 7.9375 14.125 8.9375 14.125 10.0625C14.125 12.25 12.3125 14.125 10 14.125ZM12.25 11C12.125 10.9375 11.5 10.625 11.375 10.625C11.25 10.5625 11.1875 10.5625 11.125 10.6875C11.0625 10.8125 10.8125 11.0625 10.75 11.1875C10.6875 11.25 10.625 11.25 10.5 11.25C10.375 11.1875 10 11.0625 9.50001 10.625C9.12501 10.3125 8.875 9.875 8.8125 9.75C8.75 9.625 8.81251 9.5625 8.87501 9.5C8.93751 9.4375 9 9.375 9.0625 9.3125C9.125 9.25 9.12501 9.1875 9.18751 9.125C9.25001 9.0625 9.18751 9 9.18751 8.9375C9.18751 8.875 8.9375 8.25 8.8125 8C8.75 7.8125 8.62501 7.8125 8.56251 7.8125C8.50001 7.8125 8.43749 7.8125 8.31249 7.8125C8.24999 7.8125 8.12499 7.8125 7.99999 7.9375C7.87499 8.0625 7.5625 8.375 7.5625 9C7.5625 9.625 8 10.1875 8.0625 10.3125C8.125 10.375 8.93749 11.6875 10.1875 12.1875C11.25 12.625 11.4375 12.5 11.6875 12.5C11.9375 12.5 12.4375 12.1875 12.5 11.9375C12.625 11.625 12.625 11.375 12.5625 11.375C12.5 11.0625 12.375 11.0625 12.25 11Z" fill="white"/>
</svg>
