<svg aria-hidden="true" xmlns="http://www.w3.org/2000/svg" xmlns:xlink="http://www.w3.org/1999/xlink"><symbol viewBox="0 0 17 16" fill="none" id="icon-arrow-down" xmlns="http://www.w3.org/2000/svg">
<path d="M13 7.5L11.4274 9.26297C10.1733 10.6689 9.54627 11.3719 8.782 11.4801C8.59474 11.5066 8.40526 11.5066 8.218 11.4801C7.45373 11.3719 6.82668 10.6689 5.57258 9.26297L4 7.5" stroke="currentColor" stroke-width="1.5" stroke-linecap="round"/>
</symbol><symbol viewBox="0 0 12 12" fill="none" id="icon-arrow-line-next" xmlns="http://www.w3.org/2000/svg">
<path d="M9.02229 4.81091L5.65577 1.44438C5.50052 1.28364 5.41461 1.06835 5.41655 0.84488C5.41849 0.621413 5.50813 0.407649 5.66615 0.249629C5.82417 0.091608 6.03793 0.00197408 6.2614 3.22186e-05C6.48487 -0.00190964 6.70015 0.083996 6.8609 0.239247L11.6823 5.06062C11.7617 5.13959 11.8247 5.23348 11.8677 5.33689C11.9107 5.4403 11.9329 5.55119 11.9329 5.66319C11.9329 5.77519 11.9107 5.88608 11.8677 5.98949C11.8247 6.0929 11.7617 6.18679 11.6823 6.26576L6.8609 11.0871C6.78228 11.1685 6.68823 11.2335 6.58425 11.2781C6.48027 11.3228 6.36843 11.3463 6.25526 11.3473C6.1421 11.3483 6.02987 11.3267 5.92513 11.2839C5.82038 11.241 5.72523 11.1777 5.6452 11.0977C5.56518 11.0177 5.50189 10.9225 5.45904 10.8178C5.41619 10.713 5.39462 10.6008 5.39561 10.4876C5.39659 10.3745 5.4201 10.2626 5.46477 10.1587C5.50943 10.0547 5.57436 9.96062 5.65577 9.882L9.02229 6.51548H0.852285C0.626245 6.51548 0.409463 6.42568 0.249629 6.26585C0.0897941 6.10601 0 5.88923 0 5.66319C0 5.43715 0.0897941 5.22037 0.249629 5.06053C0.409463 4.9007 0.626245 4.81091 0.852285 4.81091H9.02229Z" fill="currentColor"/>
</symbol><symbol viewBox="0 0 24 24" fill="none" id="icon-arrow-next" xmlns="http://www.w3.org/2000/svg">
<path d="M10 7L11.763 8.74731C13.1689 10.1408 13.8719 10.8375 13.9801 11.6867C14.0066 11.8947 14.0066 12.1053 13.9801 12.3133C13.8719 13.1625 13.1689 13.8592 11.763 15.2527L10 17" stroke="currentColor" stroke-width="2" stroke-linecap="round"/>
</symbol><symbol viewBox="0 0 24 24" fill="none" id="icon-burger" xmlns="http://www.w3.org/2000/svg">
<path d="M3 17H21M3 12H21M3 7H21" stroke="currentColor" stroke-width="2" stroke-linecap="round" stroke-linejoin="round"/>
</symbol><symbol viewBox="0 0 24 24" fill="none" id="icon-circle-check" xmlns="http://www.w3.org/2000/svg">
<path fill-rule="evenodd" clip-rule="evenodd" d="M12 22C6.477 22 2 17.523 2 12C2 6.477 6.477 2 12 2C17.523 2 22 6.477 22 12C22 17.523 17.523 22 12 22ZM12 20.8C14.3339 20.8 16.5722 19.8729 18.2225 18.2225C19.8729 16.5722 20.8 14.3339 20.8 12C20.8 9.66609 19.8729 7.42778 18.2225 5.77746C16.5722 4.12714 14.3339 3.2 12 3.2C9.66609 3.2 7.42778 4.12714 5.77746 5.77746C4.12714 7.42778 3.2 9.66609 3.2 12C3.2 14.3339 4.12714 16.5722 5.77746 18.2225C7.42778 19.8729 9.66609 20.8 12 20.8ZM10.828 14.558L16.637 8.75L17.485 9.599L11.535 15.549C11.3475 15.7365 11.0932 15.8418 10.828 15.8418C10.5628 15.8418 10.3085 15.7365 10.121 15.549L7 12.426L7.849 11.577L10.829 14.557L10.828 14.558Z" fill="currentColor"/>
</symbol><symbol viewBox="0 0 24 24" fill="none" id="icon-close" xmlns="http://www.w3.org/2000/svg">
<path d="M19.9999 19.9999L12 12M12 12L4 4M12 12L20 4M12 12L4 20" stroke="currentColor" stroke-width="2" stroke-linecap="round" stroke-linejoin="round"/>
</symbol><symbol viewBox="0 0 20 20" fill="none" id="icon-loconfile" xmlns="http://www.w3.org/2000/svg">
<path d="M6.97205 14.2134L12.7119 8.71752C13.0604 8.38384 13.2347 8.217 13.3257 8.03594C13.4888 7.71164 13.4888 7.33388 13.3257 7.00958C13.2347 6.82852 13.0604 6.66168 12.7119 6.328C12.3634 5.99431 12.1892 5.82747 12.0001 5.74027C11.6614 5.5841 11.2669 5.5841 10.9282 5.74027C10.7391 5.82747 10.5648 5.99431 10.2163 6.32799L4.51805 11.7841C3.66347 12.6023 3.23618 13.0115 3.08698 13.4872C2.97101 13.857 2.97101 14.2513 3.08698 14.6211C3.23618 15.0968 3.66347 15.5059 4.51805 16.3242C5.37263 17.1425 5.79992 17.5516 6.29677 17.6944C6.68298 17.8055 7.09475 17.8055 7.48096 17.6944C7.97781 17.5516 8.4051 17.1425 9.25968 16.3242L15.0411 10.7885C15.8534 10.0107 16.2596 9.6218 16.5035 9.21724C17.1655 8.11941 17.1655 6.76681 16.5035 5.66897C16.2596 5.26442 15.8534 4.87554 15.0411 4.09777C14.2289 3.32 13.8227 2.93112 13.4002 2.69755C12.2536 2.06371 10.841 2.06371 9.69443 2.69755C9.27191 2.93112 8.86577 3.32 8.05348 4.09777L3.39503 8.55822" stroke="currentColor" stroke-opacity="0.5" stroke-linecap="round"/>
</symbol><symbol viewBox="0 0 21 20" fill="none" id="icon-mail" xmlns="http://www.w3.org/2000/svg">
<path d="M15.2297 4H5.77027C4.51643 4 3.5 5.03985 3.5 6.32258V13.6774C3.5 14.9601 4.51643 16 5.77027 16H15.2297C16.4836 16 17.5 14.9601 17.5 13.6774V6.32258C17.5 5.03985 16.4836 4 15.2297 4Z" stroke="currentColor" stroke-width="1.5" stroke-linecap="round" stroke-linejoin="round"/>
<path d="M3.5 8L9.86811 10.993C10.0663 11.0862 10.2819 11.1344 10.5 11.1344C10.7181 11.1344 10.9337 11.0862 11.1319 10.993L17.5 8" stroke="currentColor" stroke-width="1.5" stroke-linecap="round" stroke-linejoin="round"/>
</symbol><symbol viewBox="0 0 20 20" fill="none" id="icon-tel" xmlns="http://www.w3.org/2000/svg">
<mask id="ipath-1-inside-1_2031_2215" fill="currentColor">
<path d="M13.5628 18.5C12.6167 18.5 11.6205 18.274 10.5907 17.8386C9.58605 17.4116 8.57302 16.8256 7.58512 16.114C6.60558 15.394 5.65954 14.5902 4.76372 13.7112C3.87628 12.8153 3.07256 11.8693 2.36093 10.8981C1.64093 9.89349 1.06326 8.88884 0.653023 7.91767C0.217674 6.87953 0 5.87488 0 4.92884C0 4.27581 0.117209 3.65628 0.343256 3.0786C0.577674 2.48419 0.954419 1.93163 1.46512 1.45442C2.10977 0.81814 2.84651 0.5 3.63349 0.5C3.96 0.5 4.29488 0.575349 4.57953 0.709302C4.90605 0.86 5.18233 1.08605 5.38326 1.38744L7.32558 4.12512C7.5014 4.36791 7.63535 4.60233 7.72744 4.83674C7.83628 5.08791 7.89488 5.33907 7.89488 5.58186C7.89488 5.9 7.80279 6.20977 7.62698 6.50279C7.5014 6.72884 7.30884 6.97163 7.06605 7.21442L6.49674 7.80884C6.50512 7.83395 6.51349 7.8507 6.52186 7.86744C6.62233 8.04326 6.82326 8.34465 7.20837 8.79674C7.61861 9.26558 8.00372 9.69256 8.38884 10.086C8.88279 10.5716 9.29302 10.9567 9.67814 11.2749C10.1554 11.6767 10.4651 11.8777 10.6493 11.9698L11.2437 11.4088C11.5033 11.1493 11.7544 10.9567 11.9972 10.8312C12.4577 10.5465 13.0437 10.4963 13.6298 10.7391C13.8474 10.8312 14.0819 10.9567 14.333 11.1326L17.1126 13.1084C17.4223 13.3177 17.6484 13.5856 17.7823 13.9037C17.9079 14.2219 17.9665 14.5149 17.9665 14.8079C17.9665 15.2098 17.8744 15.6116 17.6986 15.9884C17.5228 16.3651 17.3051 16.6916 17.0288 16.993C16.5516 17.5205 16.0326 17.8972 15.4298 18.14C14.8521 18.3744 14.2242 18.5 13.5628 18.5ZM3.63349 1.75581C3.17302 1.75581 2.74605 1.95674 2.33581 2.3586C1.9507 2.7186 1.68279 3.11209 1.51535 3.53907C1.33953 3.97442 1.25581 4.43488 1.25581 4.92884C1.25581 5.70744 1.44 6.55302 1.80837 7.42372C2.18512 8.31116 2.71256 9.23209 3.38233 10.153C4.05209 11.074 4.81395 11.9698 5.65116 12.8153C6.48837 13.6442 7.39256 14.4144 8.32186 15.0926C9.22605 15.754 10.1553 16.2898 11.0763 16.6749C12.5079 17.286 13.8474 17.4284 14.9526 16.9679C15.3795 16.7921 15.7563 16.5242 16.0995 16.1391C16.2921 15.9298 16.4428 15.7037 16.5684 15.4358C16.6688 15.2265 16.7191 15.0088 16.7191 14.7912C16.7191 14.6572 16.694 14.5233 16.627 14.3726C16.6019 14.3223 16.5516 14.2302 16.3926 14.1214L13.613 12.1456C13.4456 12.0284 13.2949 11.9447 13.1526 11.886C12.9684 11.8107 12.893 11.7353 12.6084 11.9112C12.4409 11.9949 12.2902 12.1205 12.1228 12.2879L11.4865 12.9158C11.16 13.234 10.6577 13.3093 10.2726 13.167L10.0465 13.0665C9.70326 12.8823 9.3014 12.5977 8.85768 12.2209C8.45581 11.8777 8.02047 11.4758 7.49302 10.9567C7.08279 10.5381 6.67256 10.0944 6.24558 9.60046C5.85209 9.14 5.56744 8.74651 5.39163 8.42L5.29116 8.16884C5.24093 7.97628 5.22419 7.86744 5.22419 7.75023C5.22419 7.44884 5.33302 7.18093 5.54233 6.97163L6.17023 6.3186C6.33768 6.15116 6.46326 5.99209 6.54698 5.84977C6.61395 5.74093 6.63907 5.64884 6.63907 5.56512C6.63907 5.49814 6.61395 5.39767 6.57209 5.29721C6.51349 5.16326 6.4214 5.01256 6.30419 4.85349L4.36186 2.10744C4.27814 1.99023 4.17767 1.90651 4.05209 1.84791C3.91814 1.7893 3.77581 1.75581 3.63349 1.75581Z"/>
</mask>
<path d="M13.5628 18.5C12.6167 18.5 11.6205 18.274 10.5907 17.8386C9.58605 17.4116 8.57302 16.8256 7.58512 16.114C6.60558 15.394 5.65954 14.5902 4.76372 13.7112C3.87628 12.8153 3.07256 11.8693 2.36093 10.8981C1.64093 9.89349 1.06326 8.88884 0.653023 7.91767C0.217674 6.87953 0 5.87488 0 4.92884C0 4.27581 0.117209 3.65628 0.343256 3.0786C0.577674 2.48419 0.954419 1.93163 1.46512 1.45442C2.10977 0.81814 2.84651 0.5 3.63349 0.5C3.96 0.5 4.29488 0.575349 4.57953 0.709302C4.90605 0.86 5.18233 1.08605 5.38326 1.38744L7.32558 4.12512C7.5014 4.36791 7.63535 4.60233 7.72744 4.83674C7.83628 5.08791 7.89488 5.33907 7.89488 5.58186C7.89488 5.9 7.80279 6.20977 7.62698 6.50279C7.5014 6.72884 7.30884 6.97163 7.06605 7.21442L6.49674 7.80884C6.50512 7.83395 6.51349 7.8507 6.52186 7.86744C6.62233 8.04326 6.82326 8.34465 7.20837 8.79674C7.61861 9.26558 8.00372 9.69256 8.38884 10.086C8.88279 10.5716 9.29302 10.9567 9.67814 11.2749C10.1554 11.6767 10.4651 11.8777 10.6493 11.9698L11.2437 11.4088C11.5033 11.1493 11.7544 10.9567 11.9972 10.8312C12.4577 10.5465 13.0437 10.4963 13.6298 10.7391C13.8474 10.8312 14.0819 10.9567 14.333 11.1326L17.1126 13.1084C17.4223 13.3177 17.6484 13.5856 17.7823 13.9037C17.9079 14.2219 17.9665 14.5149 17.9665 14.8079C17.9665 15.2098 17.8744 15.6116 17.6986 15.9884C17.5228 16.3651 17.3051 16.6916 17.0288 16.993C16.5516 17.5205 16.0326 17.8972 15.4298 18.14C14.8521 18.3744 14.2242 18.5 13.5628 18.5ZM3.63349 1.75581C3.17302 1.75581 2.74605 1.95674 2.33581 2.3586C1.9507 2.7186 1.68279 3.11209 1.51535 3.53907C1.33953 3.97442 1.25581 4.43488 1.25581 4.92884C1.25581 5.70744 1.44 6.55302 1.80837 7.42372C2.18512 8.31116 2.71256 9.23209 3.38233 10.153C4.05209 11.074 4.81395 11.9698 5.65116 12.8153C6.48837 13.6442 7.39256 14.4144 8.32186 15.0926C9.22605 15.754 10.1553 16.2898 11.0763 16.6749C12.5079 17.286 13.8474 17.4284 14.9526 16.9679C15.3795 16.7921 15.7563 16.5242 16.0995 16.1391C16.2921 15.9298 16.4428 15.7037 16.5684 15.4358C16.6688 15.2265 16.7191 15.0088 16.7191 14.7912C16.7191 14.6572 16.694 14.5233 16.627 14.3726C16.6019 14.3223 16.5516 14.2302 16.3926 14.1214L13.613 12.1456C13.4456 12.0284 13.2949 11.9447 13.1526 11.886C12.9684 11.8107 12.893 11.7353 12.6084 11.9112C12.4409 11.9949 12.2902 12.1205 12.1228 12.2879L11.4865 12.9158C11.16 13.234 10.6577 13.3093 10.2726 13.167L10.0465 13.0665C9.70326 12.8823 9.3014 12.5977 8.85768 12.2209C8.45581 11.8777 8.02047 11.4758 7.49302 10.9567C7.08279 10.5381 6.67256 10.0944 6.24558 9.60046C5.85209 9.14 5.56744 8.74651 5.39163 8.42L5.29116 8.16884C5.24093 7.97628 5.22419 7.86744 5.22419 7.75023C5.22419 7.44884 5.33302 7.18093 5.54233 6.97163L6.17023 6.3186C6.33768 6.15116 6.46326 5.99209 6.54698 5.84977C6.61395 5.74093 6.63907 5.64884 6.63907 5.56512C6.63907 5.49814 6.61395 5.39767 6.57209 5.29721C6.51349 5.16326 6.4214 5.01256 6.30419 4.85349L4.36186 2.10744C4.27814 1.99023 4.17767 1.90651 4.05209 1.84791C3.91814 1.7893 3.77581 1.75581 3.63349 1.75581Z" fill="currentColor"/>
<path d="M10.5907 17.8386L10.004 19.2191L10.0066 19.2202L10.5907 17.8386ZM7.58512 16.114L6.69673 17.3226L6.70254 17.3268L6.70839 17.3311L7.58512 16.114ZM4.76372 13.7112L3.69809 14.7668L3.70555 14.7744L3.71311 14.7818L4.76372 13.7112ZM2.36093 10.8981L1.1417 11.7719L1.14631 11.7784L1.15099 11.7847L2.36093 10.8981ZM0.653023 7.91767L-0.730273 8.49777L-0.728756 8.50136L0.653023 7.91767ZM0.343256 3.0786L-1.05216 2.5283L-1.05361 2.53201L0.343256 3.0786ZM1.46512 1.45442L2.48923 2.5504L2.50422 2.5364L2.51882 2.52199L1.46512 1.45442ZM4.57953 0.709302L3.94082 2.06657L3.95095 2.07124L4.57953 0.709302ZM5.38326 1.38744L4.13518 2.21949L4.14727 2.23763L4.15988 2.2554L5.38326 1.38744ZM7.32558 4.12512L6.10221 4.99308L6.10641 4.999L6.11067 5.00488L7.32558 4.12512ZM7.72744 4.83674L6.33132 5.38522L6.3408 5.40936L6.35111 5.43316L7.72744 4.83674ZM7.62698 6.50279L6.34074 5.73105L6.32788 5.75248L6.31574 5.77433L7.62698 6.50279ZM7.06605 7.21442L6.00539 6.15376L5.99394 6.1652L5.98275 6.17689L7.06605 7.21442ZM6.49674 7.80884L5.41345 6.77131L4.78759 7.42478L5.07372 8.28318L6.49674 7.80884ZM6.52186 7.86744L5.18022 8.53826L5.19884 8.5755L5.2195 8.61165L6.52186 7.86744ZM7.20837 8.79674L6.06651 9.76944L6.07296 9.77702L6.07951 9.7845L7.20837 8.79674ZM8.38884 10.086L7.31684 11.1352L7.32696 11.1456L7.33728 11.1557L8.38884 10.086ZM9.67814 11.2749L10.6443 10.1275L10.6389 10.123L10.6335 10.1184L9.67814 11.2749ZM10.6493 11.9698L9.97848 13.3114L10.9162 13.7803L11.6788 13.0607L10.6493 11.9698ZM11.2437 11.4088L12.2732 12.4998L12.289 12.4849L12.3044 12.4695L11.2437 11.4088ZM11.9972 10.8312L12.6863 12.1635L12.7372 12.1372L12.7859 12.1071L11.9972 10.8312ZM13.6298 10.7391L14.2142 9.35758L14.2039 9.35329L13.6298 10.7391ZM14.333 11.1326L15.2021 9.90994L15.1932 9.90371L14.333 11.1326ZM17.1126 13.1084L16.2435 14.331L16.258 14.3413L16.2728 14.3513L17.1126 13.1084ZM17.7823 13.9037L19.1776 13.353L19.1713 13.3372L19.1648 13.3216L17.7823 13.9037ZM17.0288 16.993L15.9231 15.9794L15.9165 15.9867L17.0288 16.993ZM15.4298 18.14L14.8694 16.7486L14.8657 16.7501L15.4298 18.14ZM2.33581 2.3586L3.36014 3.4544L3.37295 3.44242L3.38548 3.43014L2.33581 2.3586ZM1.51535 3.53907L2.90621 4.10076L2.90905 4.09375L2.91181 4.0867L1.51535 3.53907ZM1.80837 7.42372L0.42692 8.00818L0.427642 8.00988L1.80837 7.42372ZM5.65116 12.8153L4.58524 13.8707L4.59052 13.876L4.59585 13.8813L5.65116 12.8153ZM8.32186 15.0926L9.20745 13.8819L9.20606 13.8809L8.32186 15.0926ZM11.0763 16.6749L11.6652 15.2953L11.655 15.291L11.0763 16.6749ZM14.9526 16.9679L14.3814 15.5809L14.3756 15.5833L14.9526 16.9679ZM16.0995 16.1391L14.9956 15.1235L14.9876 15.1322L14.9798 15.141L16.0995 16.1391ZM16.5684 15.4358L15.216 14.7867L15.2102 14.7992L16.5684 15.4358ZM16.627 14.3726L17.9977 13.7634L17.9839 13.7322L17.9686 13.7017L16.627 14.3726ZM16.3926 14.1214L15.5235 15.344L15.5344 15.3518L15.5455 15.3594L16.3926 14.1214ZM13.613 12.1456L14.4821 10.923L14.4732 10.9167L13.613 12.1456ZM13.1526 11.886L13.7237 10.499L13.7205 10.4977L13.1526 11.886ZM12.6084 11.9112L13.2792 13.2528L13.3394 13.2227L13.3966 13.1874L12.6084 11.9112ZM12.1228 12.2879L13.1764 13.3556L13.1835 13.3486L12.1228 12.2879ZM11.4865 12.9158L12.5333 13.9902L12.5401 13.9835L11.4865 12.9158ZM10.2726 13.167L9.66336 14.5377L9.70739 14.5573L9.75258 14.574L10.2726 13.167ZM10.0465 13.0665L9.33729 14.3883L9.38639 14.4146L9.43731 14.4372L10.0465 13.0665ZM8.85768 12.2209L7.88344 13.3615L7.88683 13.3644L8.85768 12.2209ZM7.49302 10.9567L6.4217 12.0066L6.43121 12.0163L6.44088 12.0259L7.49302 10.9567ZM6.24558 9.60046L5.10522 10.575L5.11078 10.5814L6.24558 9.60046ZM5.39163 8.42L3.99891 8.97708L4.03054 9.05616L4.07092 9.13115L5.39163 8.42ZM5.29116 8.16884L3.83974 8.54747L3.86349 8.63854L3.89845 8.72592L5.29116 8.16884ZM5.54233 6.97163L6.60299 8.03229L6.61338 8.02189L6.62357 8.01129L5.54233 6.97163ZM6.17023 6.3186L5.10957 5.25794L5.09918 5.26834L5.08898 5.27894L6.17023 6.3186ZM6.54698 5.84977L5.26949 5.06362L5.26166 5.07635L5.25408 5.08924L6.54698 5.84977ZM6.57209 5.29721L7.95671 4.72029L7.95163 4.70809L7.94633 4.69598L6.57209 5.29721ZM6.30419 4.85349L5.07956 5.71969L5.08797 5.73157L5.0966 5.74329L6.30419 4.85349ZM4.36186 2.10744L5.5865 1.24124L5.58246 1.23558L4.36186 2.10744ZM4.05209 1.84791L4.68642 0.488632L4.66996 0.480951L4.65332 0.473671L4.05209 1.84791ZM13.5628 18.5V17C12.8562 17 12.0592 16.8309 11.1748 16.457L10.5907 17.8386L10.0066 19.2202C11.1817 19.717 12.3773 20 13.5628 20V18.5ZM10.5907 17.8386L11.1774 16.4581C10.2908 16.0813 9.37433 15.5541 8.46185 14.8968L7.58512 16.114L6.70839 17.3311C7.77171 18.097 8.88129 18.742 10.004 19.2191L10.5907 17.8386ZM7.58512 16.114L8.47351 14.9053C7.55161 14.2277 6.65973 13.4701 5.81433 12.6405L4.76372 13.7112L3.71311 14.7818C4.65934 15.7103 5.65955 16.5602 6.69673 17.3226L7.58512 16.114ZM4.76372 13.7112L5.82935 12.6555C4.99455 11.8128 4.239 10.9233 3.57087 10.0115L2.36093 10.8981L1.15099 11.7847C1.90612 12.8153 2.75801 13.8179 3.69809 14.7668L4.76372 13.7112ZM2.36093 10.8981L3.58016 10.0244C2.91271 9.09304 2.39431 8.18506 2.0348 7.33399L0.653023 7.91767L-0.728756 8.50136C-0.267795 9.59261 0.369155 10.6939 1.1417 11.7719L2.36093 10.8981ZM0.653023 7.91767L2.03631 7.33758C1.66476 6.45158 1.5 5.6441 1.5 4.92884H0H-1.5C-1.5 6.10566 -1.22942 7.30749 -0.730268 8.49776L0.653023 7.91767ZM0 4.92884H1.5C1.5 4.45841 1.58383 4.02461 1.74012 3.6252L0.343256 3.0786L-1.05361 2.53201C-1.34941 3.28794 -1.5 4.09322 -1.5 4.92884H0ZM0.343256 3.0786L1.73867 3.62891C1.8873 3.25201 2.13297 2.8833 2.48923 2.5504L1.46512 1.45442L0.440999 0.358433C-0.224136 0.979953 -0.73195 1.71636 -1.05215 2.5283L0.343256 3.0786ZM1.46512 1.45442L2.51882 2.52199C2.91983 2.12618 3.29015 2 3.63349 2V0.5V-1C2.40288 -1 1.2997 -0.489906 0.411411 0.386849L1.46512 1.45442ZM3.63349 0.5V2C3.74176 2 3.8583 2.02769 3.94084 2.06653L4.57953 0.709302L5.21823 -0.647926C4.73147 -0.87699 4.17824 -1 3.63349 -1V0.5ZM4.57953 0.709302L3.95095 2.07124C4.04634 2.11527 4.09984 2.16648 4.13518 2.21949L5.38326 1.38744L6.63133 0.555391C6.26481 0.00561446 5.76575 -0.39527 5.20812 -0.652637L4.57953 0.709302ZM5.38326 1.38744L4.15988 2.2554L6.10221 4.99308L7.32558 4.12512L8.54896 3.25716L6.60663 0.519482L5.38326 1.38744ZM7.32558 4.12512L6.11067 5.00488C6.23087 5.17087 6.2957 5.29455 6.33132 5.38522L7.72744 4.83674L9.12357 4.28827C8.975 3.9101 8.77192 3.56494 8.5405 3.24535L7.32558 4.12512ZM7.72744 4.83674L6.35111 5.43316C6.3942 5.53261 6.39488 5.58064 6.39488 5.58186H7.89488H9.39488C9.39488 5.0975 9.27835 4.64321 9.10378 4.24033L7.72744 4.83674ZM7.89488 5.58186H6.39488C6.39488 5.59909 6.39242 5.64492 6.34074 5.73105L7.62698 6.50279L8.91322 7.27453C9.21317 6.77462 9.39488 6.20091 9.39488 5.58186H7.89488ZM7.62698 6.50279L6.31574 5.77433C6.27776 5.84269 6.18357 5.97557 6.00539 6.15376L7.06605 7.21442L8.12671 8.27508C8.4341 7.96768 8.72503 7.61498 8.93821 7.23126L7.62698 6.50279ZM7.06605 7.21442L5.98275 6.17689L5.41345 6.77131L6.49674 7.80884L7.58004 8.84636L8.14935 8.25195L7.06605 7.21442ZM6.49674 7.80884L5.07372 8.28318C5.11781 8.41545 5.16709 8.51201 5.18022 8.53826L6.52186 7.86744L7.8635 7.19662C7.85789 7.1854 7.86842 7.20597 7.88002 7.23208C7.8937 7.26286 7.90741 7.29742 7.91977 7.33449L6.49674 7.80884ZM6.52186 7.86744L5.2195 8.61165C5.37776 8.88862 5.6381 9.26653 6.06651 9.76944L7.20837 8.79674L8.35024 7.82404C8.00841 7.42277 7.86689 7.19789 7.82423 7.12323L6.52186 7.86744ZM7.20837 8.79674L6.07951 9.7845C6.49737 10.2621 6.90339 10.7128 7.31684 11.1352L8.38884 10.086L9.46084 9.03685C9.10405 8.6723 8.73984 8.26911 8.33724 7.80899L7.20837 8.79674ZM8.38884 10.086L7.33728 11.1557C7.83995 11.6499 8.28691 12.0712 8.72282 12.4313L9.67814 11.2749L10.6335 10.1184C10.2991 9.84226 9.92564 9.49338 9.44039 9.01636L8.38884 10.086ZM9.67814 11.2749L8.71194 12.4223C9.2304 12.8588 9.64333 13.1438 9.97848 13.3114L10.6493 11.9698L11.3201 10.6281C11.2869 10.6115 11.0803 10.4946 10.6443 10.1275L9.67814 11.2749ZM10.6493 11.9698L11.6788 13.0607L12.2732 12.4998L11.2437 11.4088L10.2142 10.3179L9.61982 10.8788L10.6493 11.9698ZM11.2437 11.4088L12.3044 12.4695C12.4897 12.2842 12.6185 12.1986 12.6863 12.1635L11.9972 10.8312L11.3081 9.49884C10.8904 9.71489 10.5168 10.0144 10.1831 10.3482L11.2437 11.4088ZM11.9972 10.8312L12.7859 12.1071C12.8048 12.0954 12.8282 12.0864 12.8624 12.0842C12.8971 12.082 12.9615 12.0858 13.0557 12.1249L13.6298 10.7391L14.2039 9.35329C13.2069 8.94024 12.11 8.99798 11.2085 9.55527L11.9972 10.8312ZM13.6298 10.7391L13.0453 12.1205C13.1658 12.1715 13.3078 12.2459 13.4728 12.3614L14.333 11.1326L15.1932 9.90371C14.8559 9.6676 14.5291 9.49083 14.2142 9.35762L13.6298 10.7391ZM14.333 11.1326L13.464 12.3551L16.2435 14.331L17.1126 13.1084L17.9816 11.8858L15.2021 9.90997L14.333 11.1326ZM17.1126 13.1084L16.2728 14.3513C16.3636 14.4126 16.3888 14.4596 16.3999 14.4858L17.7823 13.9037L19.1648 13.3216C18.9079 12.7116 18.4811 12.2227 17.9523 11.8655L17.1126 13.1084ZM17.7823 13.9037L16.3871 14.4545C16.4528 14.6209 16.4665 14.7273 16.4665 14.8079H17.9665H19.4665C19.4665 14.3025 19.363 13.8228 19.1776 13.353L17.7823 13.9037ZM17.9665 14.8079H16.4665C16.4665 14.9797 16.4272 15.1658 16.3393 15.354L17.6986 15.9884L19.0579 16.6227C19.3217 16.0575 19.4665 15.4399 19.4665 14.8079H17.9665ZM17.6986 15.9884L16.3393 15.354C16.2271 15.5945 16.0943 15.7927 15.9231 15.9794L17.0288 16.993L18.1346 18.0066C18.516 17.5906 18.8185 17.1357 19.0579 16.6227L17.6986 15.9884ZM17.0288 16.993L15.9165 15.9867C15.5712 16.3683 15.2347 16.6015 14.8694 16.7486L15.4298 18.14L15.9902 19.5314C16.8304 19.193 17.5321 18.6726 18.1411 17.9994L17.0288 16.993ZM15.4298 18.14L14.8657 16.7501C14.4682 16.9114 14.0319 17 13.5628 17V18.5V20C14.4165 20 15.236 19.8374 15.9938 19.5299L15.4298 18.14ZM3.63349 1.75581V0.255814C2.68195 0.255814 1.89739 0.688292 1.28614 1.28707L2.33581 2.3586L3.38548 3.43014C3.49549 3.32239 3.56796 3.28078 3.59942 3.26612C3.62427 3.25454 3.63051 3.25581 3.63349 3.25581V1.75581ZM2.33581 2.3586L1.31149 1.26281C0.776118 1.76327 0.37427 2.34022 0.118889 2.99144L1.51535 3.53907L2.91181 4.0867C2.99131 3.88397 3.12528 3.67394 3.36014 3.4544L2.33581 2.3586ZM1.51535 3.53907L0.124486 2.97738C-0.129736 3.60688 -0.244186 4.26003 -0.244186 4.92884H1.25581H2.75581C2.75581 4.60974 2.80881 4.34196 2.90621 4.10076L1.51535 3.53907ZM1.25581 4.92884H-0.244186C-0.244186 5.94139 -0.00564161 6.98576 0.426921 8.00818L1.80837 7.42372L3.18982 6.83926C2.88564 6.12029 2.75581 5.4735 2.75581 4.92884H1.25581ZM1.80837 7.42372L0.427642 8.00988C0.854348 9.01501 1.44134 10.0345 2.16922 11.0353L3.38233 10.153L4.59543 9.27077C3.98377 8.42974 3.51589 7.60732 3.1891 6.83756L1.80837 7.42372ZM3.38233 10.153L2.16922 11.0353C2.88467 12.019 3.69595 12.9725 4.58524 13.8707L5.65116 12.8153L6.71709 11.76C5.93196 10.967 5.21952 10.1289 4.59543 9.27077L3.38233 10.153ZM5.65116 12.8153L4.59585 13.8813C5.48561 14.7622 6.44689 15.5813 7.43766 16.3042L8.32186 15.0926L9.20606 13.8809C8.33822 13.2476 7.49114 12.5262 6.70648 11.7494L5.65116 12.8153ZM8.32186 15.0926L7.43627 16.3032C8.42211 17.0244 9.4535 17.6221 10.4976 18.0588L11.0763 16.6749L11.655 15.291C10.8572 14.9574 10.03 14.4836 9.20745 13.8819L8.32186 15.0926ZM11.0763 16.6749L10.4873 18.0544C12.1189 18.7509 13.9078 19.0282 15.5295 18.3525L14.9526 16.9679L14.3756 15.5833C13.7871 15.8285 12.8969 15.8212 11.6652 15.2953L11.0763 16.6749ZM14.9526 16.9679L15.5237 18.3549C16.174 18.0871 16.7349 17.6806 17.2193 17.1371L16.0995 16.1391L14.9798 15.141C14.7776 15.3678 14.5851 15.497 14.3814 15.5809L14.9526 16.9679ZM16.0995 16.1391L17.2034 17.1547C17.5037 16.8283 17.7387 16.4733 17.9266 16.0725L16.5684 15.4358L15.2102 14.7992C15.1469 14.9342 15.0805 15.0313 14.9956 15.1235L16.0995 16.1391ZM16.5684 15.4358L17.9207 16.0849C18.1137 15.6827 18.2191 15.244 18.2191 14.7912H16.7191H15.2191C15.2191 14.784 15.22 14.7787 15.2205 14.7762C15.2211 14.7739 15.2206 14.7773 15.2161 14.7867L16.5684 15.4358ZM16.7191 14.7912H18.2191C18.2191 14.4475 18.15 14.106 17.9977 13.7634L16.627 14.3726L15.2563 14.9818C15.2503 14.9684 15.2394 14.94 15.2308 14.8994C15.2221 14.8583 15.2191 14.8204 15.2191 14.7912H16.7191ZM16.627 14.3726L17.9686 13.7017C17.8536 13.4716 17.6494 13.1638 17.2396 12.8834L16.3926 14.1214L15.5455 15.3594C15.521 15.3426 15.4669 15.3007 15.4054 15.2265C15.3752 15.1901 15.3485 15.1522 15.3253 15.1147C15.3025 15.0776 15.2877 15.0481 15.2853 15.0434L16.627 14.3726ZM16.3926 14.1214L17.2616 12.8988L14.4821 10.923L13.613 12.1456L12.744 13.3682L15.5235 15.344L16.3926 14.1214ZM13.613 12.1456L14.4732 10.9167C14.2347 10.7498 13.9874 10.6076 13.7237 10.499L13.1526 11.886L12.5814 13.2731C12.6023 13.2817 12.6565 13.307 12.7528 13.3744L13.613 12.1456ZM13.1526 11.886L13.7205 10.4977C13.7209 10.4979 13.7195 10.4973 13.715 10.4954C13.7099 10.4932 13.7044 10.4908 13.6933 10.4858C13.6773 10.4788 13.6334 10.4592 13.5853 10.4401C13.483 10.3993 13.2898 10.3296 13.0394 10.3093C12.4922 10.265 12.0686 10.4815 11.8201 10.635L12.6084 11.9112L13.3966 13.1874C13.4328 13.165 13.1892 13.3313 12.7969 13.2995C12.6239 13.2855 12.5019 13.2378 12.4744 13.2268C12.4638 13.2226 12.4581 13.2199 12.4827 13.2307C12.5002 13.2385 12.5398 13.256 12.5846 13.2744L13.1526 11.886ZM12.6084 11.9112L11.9376 10.5695C11.5573 10.7596 11.2724 11.0169 11.0621 11.2272L12.1228 12.2879L13.1835 13.3486C13.2428 13.2893 13.2771 13.2596 13.295 13.2455C13.3107 13.2331 13.3041 13.2404 13.2792 13.2528L12.6084 11.9112ZM12.1228 12.2879L11.0692 11.2202L10.4329 11.8482L11.4865 12.9158L12.5401 13.9835L13.1764 13.3556L12.1228 12.2879ZM11.4865 12.9158L10.4397 11.8415C10.5106 11.7724 10.5804 11.7483 10.6212 11.7405C10.6577 11.7335 10.7138 11.7309 10.7925 11.76L10.2726 13.167L9.75258 14.574C10.6326 14.8992 11.7571 14.7465 12.5333 13.9902L11.4865 12.9158ZM10.2726 13.167L10.8818 11.7963L10.6557 11.6958L10.0465 13.0665L9.43731 14.4372L9.66336 14.5377L10.2726 13.167ZM10.0465 13.0665L10.7557 11.7448C10.5372 11.6275 10.2243 11.4135 9.82852 11.0775L8.85768 12.2209L7.88683 13.3644C8.37851 13.7818 8.86934 14.1372 9.33729 14.3883L10.0465 13.0665ZM8.85768 12.2209L9.8319 11.0804C9.46341 10.7656 9.0545 10.3889 8.54516 9.88763L7.49302 10.9567L6.44088 12.0259C6.98643 12.5627 7.44822 12.9897 7.88345 13.3615L8.85768 12.2209ZM7.49302 10.9567L8.56434 9.90685C8.17569 9.51027 7.78665 9.08953 7.38038 8.61953L6.24558 9.60046L5.11078 10.5814C5.55847 11.0993 5.98989 11.566 6.4217 12.0066L7.49302 10.9567ZM6.24558 9.60046L7.38593 8.62599C7.0241 8.20257 6.81598 7.90134 6.71234 7.70885L5.39163 8.42L4.07092 9.13115C4.3189 9.59168 4.68009 10.0774 5.10524 10.5749L6.24558 9.60046ZM5.39163 8.42L6.78434 7.86292L6.68388 7.61175L5.29116 8.16884L3.89845 8.72592L3.99891 8.97708L5.39163 8.42ZM5.29116 8.16884L6.74259 7.7902C6.73346 7.7552 6.72778 7.73134 6.72425 7.71535C6.72079 7.69968 6.71999 7.69422 6.72029 7.69612C6.72071 7.69874 6.72192 7.70711 6.72289 7.71943C6.72389 7.73198 6.72419 7.74286 6.72419 7.75023H5.22419H3.72419C3.72419 8.04835 3.7742 8.29624 3.83974 8.54747L5.29116 8.16884ZM5.22419 7.75023H6.72419C6.72419 7.78235 6.71786 7.83362 6.69362 7.89305C6.66916 7.95299 6.63496 8.00032 6.60299 8.03229L5.54233 6.97163L4.48167 5.91097C3.98297 6.40966 3.72419 7.06259 3.72419 7.75023H5.22419ZM5.54233 6.97163L6.62357 8.01129L7.25148 7.35827L6.17023 6.3186L5.08898 5.27894L4.46108 5.93196L5.54233 6.97163ZM6.17023 6.3186L7.23089 7.37926C7.46361 7.14654 7.67627 6.88843 7.83988 6.6103L6.54698 5.84977L5.25408 5.08924C5.2542 5.08902 5.25169 5.09329 5.24568 5.10192C5.2397 5.1105 5.23089 5.12249 5.2187 5.13772C5.19404 5.16855 5.15841 5.20911 5.10957 5.25794L6.17023 6.3186ZM6.54698 5.84977L7.82446 6.63591C8.00755 6.3384 8.13907 5.97759 8.13907 5.56512H6.63907H5.13907C5.13907 5.45218 5.15673 5.34603 5.18586 5.25242C5.21398 5.16202 5.24802 5.09851 5.26949 5.06362L6.54698 5.84977ZM6.63907 5.56512H8.13907C8.13907 5.21463 8.03299 4.90335 7.95671 4.72029L6.57209 5.29721L5.18748 5.87413C5.18232 5.86174 5.17437 5.84076 5.16607 5.80752C5.16174 5.79023 5.15577 5.7634 5.15053 5.72791C5.14559 5.69437 5.13907 5.63817 5.13907 5.56512H6.63907ZM6.57209 5.29721L7.94633 4.69598C7.82783 4.42512 7.66789 4.17556 7.51177 3.96369L6.30419 4.85349L5.0966 5.74329C5.1329 5.79255 5.15917 5.83225 5.17708 5.86182C5.19556 5.89234 5.20042 5.90429 5.19786 5.89844L6.57209 5.29721ZM6.30419 4.85349L7.52881 3.98729L5.58648 1.24124L4.36186 2.10744L3.13724 2.97364L5.07956 5.71969L6.30419 4.85349ZM4.36186 2.10744L5.58246 1.23558C5.35237 0.913462 5.05202 0.659246 4.68642 0.488632L4.05209 1.84791L3.41777 3.20718C3.36909 3.18447 3.3141 3.1513 3.26009 3.1061C3.20638 3.06116 3.16732 3.01579 3.14126 2.9793L4.36186 2.10744ZM4.05209 1.84791L4.65332 0.473671C4.35695 0.344008 4.01048 0.255814 3.63349 0.255814V1.75581V3.25581C3.54115 3.25581 3.47933 3.2346 3.45087 3.22214L4.05209 1.84791Z" fill="currentColor" fill-opacity="0.5" mask="url(#ipath-1-inside-1_2031_2215)"/>
<mask id="ipath-3-inside-2_2031_2215" fill="currentColor">
<path d="M14.441 7.61671C14.0977 7.61671 13.813 7.33206 13.813 6.9888C13.813 6.68741 13.5117 6.0595 13.0093 5.52369C12.5154 4.99625 11.9712 4.68648 11.5107 4.68648C11.1675 4.68648 10.8828 4.40183 10.8828 4.05857C10.8828 3.71532 11.1675 3.43066 11.5107 3.43066C12.3228 3.43066 13.1768 3.86601 13.9219 4.66136C14.6168 5.40648 15.0689 6.31904 15.0689 6.9888C15.0689 7.33206 14.7842 7.61671 14.441 7.61671Z"/>
</mask>
<path d="M14.441 7.61671C14.0977 7.61671 13.813 7.33206 13.813 6.9888C13.813 6.68741 13.5117 6.0595 13.0093 5.52369C12.5154 4.99625 11.9712 4.68648 11.5107 4.68648C11.1675 4.68648 10.8828 4.40183 10.8828 4.05857C10.8828 3.71532 11.1675 3.43066 11.5107 3.43066C12.3228 3.43066 13.1768 3.86601 13.9219 4.66136C14.6168 5.40648 15.0689 6.31904 15.0689 6.9888C15.0689 7.33206 14.7842 7.61671 14.441 7.61671Z" fill="currentColor"/>
<path d="M13.0093 5.52369L11.9145 6.54902L11.915 6.5496L13.0093 5.52369ZM13.9219 4.66136L15.0189 3.63832L15.0165 3.63583L13.9219 4.66136ZM14.441 7.61671V6.11671C14.9261 6.11671 15.313 6.50363 15.313 6.9888H13.813H12.313C12.313 8.16049 13.2693 9.11671 14.441 9.11671V7.61671ZM13.813 6.9888H15.313C15.313 6.46261 15.0948 5.96343 14.926 5.64378C14.7261 5.26525 14.4475 4.86457 14.1036 4.49778L13.0093 5.52369L11.915 6.5496C12.0735 6.71862 12.1967 6.8998 12.2731 7.04452C12.311 7.11633 12.3284 7.16212 12.3334 7.17731C12.3356 7.18416 12.332 7.1745 12.3271 7.14976C12.3228 7.12753 12.313 7.07107 12.313 6.9888H13.813ZM13.0093 5.52369L14.1042 4.49835C13.4972 3.85019 12.5828 3.18648 11.5107 3.18648V4.68648V6.18648C11.412 6.18648 11.4098 6.15723 11.5131 6.21523C11.6094 6.26931 11.7508 6.37425 11.9145 6.54902L13.0093 5.52369ZM11.5107 4.68648V3.18648C11.9959 3.18648 12.3828 3.5734 12.3828 4.05857H10.8828H9.38281C9.38281 5.23025 10.339 6.18648 11.5107 6.18648V4.68648ZM10.8828 4.05857H12.3828C12.3828 4.54374 11.9959 4.93066 11.5107 4.93066V3.43066V1.93066C10.339 1.93066 9.38281 2.88689 9.38281 4.05857H10.8828ZM11.5107 3.43066V4.93066C11.7811 4.93066 12.2653 5.08714 12.8272 5.68689L13.9219 4.66136L15.0165 3.63583C14.0882 2.64488 12.8645 1.93066 11.5107 1.93066V3.43066ZM13.9219 4.66136L12.8249 5.6844C13.0791 5.95703 13.2798 6.25176 13.4109 6.5172C13.4757 6.64854 13.5177 6.761 13.5422 6.84939C13.5543 6.8929 13.5613 6.92707 13.565 6.95186C13.5669 6.96409 13.5679 6.97334 13.5684 6.9797C13.5689 6.98607 13.5689 6.98904 13.5689 6.9888H15.0689H16.5689C16.5689 5.77954 15.838 4.5167 15.0189 3.63832L13.9219 4.66136ZM15.0689 6.9888H13.5689C13.5689 6.50363 13.9558 6.11671 14.441 6.11671V7.61671V9.11671C15.6126 9.11671 16.5689 8.16049 16.5689 6.9888H15.0689Z" fill="currentColor" fill-opacity="0.5" mask="url(#ipath-3-inside-2_2031_2215)"/>
<mask id="ipath-5-inside-3_2031_2215" fill="currentColor">
<path d="M17.3712 7.61628C17.0279 7.61628 16.7433 7.33163 16.7433 6.98837C16.7433 4.1 14.3991 1.75581 11.5107 1.75581C11.1675 1.75581 10.8828 1.47116 10.8828 1.12791C10.8828 0.784651 11.1675 0.5 11.5107 0.5C15.0856 0.5 17.9991 3.41349 17.9991 6.98837C17.9991 7.33163 17.7144 7.61628 17.3712 7.61628Z"/>
</mask>
<path d="M17.3712 7.61628C17.0279 7.61628 16.7433 7.33163 16.7433 6.98837C16.7433 4.1 14.3991 1.75581 11.5107 1.75581C11.1675 1.75581 10.8828 1.47116 10.8828 1.12791C10.8828 0.784651 11.1675 0.5 11.5107 0.5C15.0856 0.5 17.9991 3.41349 17.9991 6.98837C17.9991 7.33163 17.7144 7.61628 17.3712 7.61628Z" fill="currentColor"/>
<path d="M17.3712 7.61628V6.11628C17.8564 6.11628 18.2433 6.5032 18.2433 6.98837H16.7433H15.2433C15.2433 8.16006 16.1995 9.11628 17.3712 9.11628V7.61628ZM16.7433 6.98837H18.2433C18.2433 3.27157 15.2275 0.255814 11.5107 0.255814V1.75581V3.25581C13.5707 3.25581 15.2433 4.92843 15.2433 6.98837H16.7433ZM11.5107 1.75581V0.255814C11.9959 0.255814 12.3828 0.642736 12.3828 1.12791H10.8828H9.38281C9.38281 2.29959 10.339 3.25581 11.5107 3.25581V1.75581ZM10.8828 1.12791H12.3828C12.3828 1.61308 11.9959 2 11.5107 2V0.5V-1C10.339 -1 9.38281 -0.0437759 9.38281 1.12791H10.8828ZM11.5107 0.5V2C14.2572 2 16.4991 4.24192 16.4991 6.98837H17.9991H19.4991C19.4991 2.58506 15.914 -1 11.5107 -1V0.5ZM17.9991 6.98837H16.4991C16.4991 6.5032 16.886 6.11628 17.3712 6.11628V7.61628V9.11628C18.5429 9.11628 19.4991 8.16006 19.4991 6.98837H17.9991Z" fill="currentColor" fill-opacity="0.5" mask="url(#ipath-5-inside-3_2031_2215)"/>
</symbol></svg>