<svg aria-hidden="true" xmlns="http://www.w3.org/2000/svg" xmlns:xlink="http://www.w3.org/1999/xlink"><symbol viewBox="0 0 17 16" fill="none" id="icon-arrow-down" xmlns="http://www.w3.org/2000/svg">
<path d="M13 7.5L11.4274 9.26297C10.1733 10.6689 9.54627 11.3719 8.782 11.4801C8.59474 11.5066 8.40526 11.5066 8.218 11.4801C7.45373 11.3719 6.82668 10.6689 5.57258 9.26297L4 7.5" stroke="currentColor" stroke-width="1.5" stroke-linecap="round"/>
</symbol><symbol viewBox="0 0 12 12" fill="none" id="icon-arrow-line-next" xmlns="http://www.w3.org/2000/svg">
<path d="M9.02229 4.81091L5.65577 1.44438C5.50052 1.28364 5.41461 1.06835 5.41655 0.84488C5.41849 0.621413 5.50813 0.407649 5.66615 0.249629C5.82417 0.091608 6.03793 0.00197408 6.2614 3.22186e-05C6.48487 -0.00190964 6.70015 0.083996 6.8609 0.239247L11.6823 5.06062C11.7617 5.13959 11.8247 5.23348 11.8677 5.33689C11.9107 5.4403 11.9329 5.55119 11.9329 5.66319C11.9329 5.77519 11.9107 5.88608 11.8677 5.98949C11.8247 6.0929 11.7617 6.18679 11.6823 6.26576L6.8609 11.0871C6.78228 11.1685 6.68823 11.2335 6.58425 11.2781C6.48027 11.3228 6.36843 11.3463 6.25526 11.3473C6.1421 11.3483 6.02987 11.3267 5.92513 11.2839C5.82038 11.241 5.72523 11.1777 5.6452 11.0977C5.56518 11.0177 5.50189 10.9225 5.45904 10.8178C5.41619 10.713 5.39462 10.6008 5.39561 10.4876C5.39659 10.3745 5.4201 10.2626 5.46477 10.1587C5.50943 10.0547 5.57436 9.96062 5.65577 9.882L9.02229 6.51548H0.852285C0.626245 6.51548 0.409463 6.42568 0.249629 6.26585C0.0897941 6.10601 0 5.88923 0 5.66319C0 5.43715 0.0897941 5.22037 0.249629 5.06053C0.409463 4.9007 0.626245 4.81091 0.852285 4.81091H9.02229Z" fill="currentColor"/>
</symbol><symbol viewBox="0 0 24 24" fill="none" id="icon-arrow-next" xmlns="http://www.w3.org/2000/svg">
<path d="M10 7L11.763 8.74731C13.1689 10.1408 13.8719 10.8375 13.9801 11.6867C14.0066 11.8947 14.0066 12.1053 13.9801 12.3133C13.8719 13.1625 13.1689 13.8592 11.763 15.2527L10 17" stroke="currentColor" stroke-width="2" stroke-linecap="round"/>
</symbol><symbol viewBox="0 0 24 24" fill="none" id="icon-burger" xmlns="http://www.w3.org/2000/svg">
<path d="M3 17H21M3 12H21M3 7H21" stroke="currentColor" stroke-width="2" stroke-linecap="round" stroke-linejoin="round"/>
</symbol><symbol viewBox="0 0 24 24" fill="none" id="icon-close" xmlns="http://www.w3.org/2000/svg">
<path d="M19.9999 19.9999L12 12M12 12L4 4M12 12L20 4M12 12L4 20" stroke="currentColor" stroke-width="2" stroke-linecap="round" stroke-linejoin="round"/>
</symbol><symbol viewBox="0 0 20 20" fill="none" id="icon-loconfile" xmlns="http://www.w3.org/2000/svg">
<path d="M6.97205 14.2134L12.7119 8.71752C13.0604 8.38384 13.2347 8.217 13.3257 8.03594C13.4888 7.71164 13.4888 7.33388 13.3257 7.00958C13.2347 6.82852 13.0604 6.66168 12.7119 6.328C12.3634 5.99431 12.1892 5.82747 12.0001 5.74027C11.6614 5.5841 11.2669 5.5841 10.9282 5.74027C10.7391 5.82747 10.5648 5.99431 10.2163 6.32799L4.51805 11.7841C3.66347 12.6023 3.23618 13.0115 3.08698 13.4872C2.97101 13.857 2.97101 14.2513 3.08698 14.6211C3.23618 15.0968 3.66347 15.5059 4.51805 16.3242C5.37263 17.1425 5.79992 17.5516 6.29677 17.6944C6.68298 17.8055 7.09475 17.8055 7.48096 17.6944C7.97781 17.5516 8.4051 17.1425 9.25968 16.3242L15.0411 10.7885C15.8534 10.0107 16.2596 9.6218 16.5035 9.21724C17.1655 8.11941 17.1655 6.76681 16.5035 5.66897C16.2596 5.26442 15.8534 4.87554 15.0411 4.09777C14.2289 3.32 13.8227 2.93112 13.4002 2.69755C12.2536 2.06371 10.841 2.06371 9.69443 2.69755C9.27191 2.93112 8.86577 3.32 8.05348 4.09777L3.39503 8.55822" stroke="currentColor" stroke-opacity="0.5" stroke-linecap="round"/>
</symbol><symbol viewBox="0 0 21 20" fill="none" id="icon-mail" xmlns="http://www.w3.org/2000/svg">
<path d="M15.2297 4H5.77027C4.51643 4 3.5 5.03985 3.5 6.32258V13.6774C3.5 14.9601 4.51643 16 5.77027 16H15.2297C16.4836 16 17.5 14.9601 17.5 13.6774V6.32258C17.5 5.03985 16.4836 4 15.2297 4Z" stroke="currentColor" stroke-width="1.5" stroke-linecap="round" stroke-linejoin="round"/>
<path d="M3.5 8L9.86811 10.993C10.0663 11.0862 10.2819 11.1344 10.5 11.1344C10.7181 11.1344 10.9337 11.0862 11.1319 10.993L17.5 8" stroke="currentColor" stroke-width="1.5" stroke-linecap="round" stroke-linejoin="round"/>
</symbol></svg>